<?xml version="1.0" encoding="utf-8"?>
<!-- Generator: Adobe Illustrator 23.0.6, SVG Export Plug-In . SVG Version: 6.00 Build 0)  -->
<svg version="1.1" id="Layer_1" xmlns="http://www.w3.org/2000/svg" xmlns:xlink="http://www.w3.org/1999/xlink" x="0px" y="0px"
	 viewBox="0 0 1000 200" style="enable-background:new 0 0 1000 200;" xml:space="preserve">
<style type="text/css">
	.st0{fill:#F2A444;}
	.st1{fill:#FFFFFF;}
	.st2{fill:#124673;}
</style>
<g>
	<g>
		<g>
			<path class="st0" d="M287.4,8.2c40.9,0,75.7,26.9,87.5,64h6.3c-12-40.4-49.5-70-93.8-70c-28.2,0-53.6,12-71.5,31.2
				c5.5-2.8,10.6-4.5,15.1-5.7C246.6,15.5,266.2,8.2,287.4,8.2z"/>
			<path class="st0" d="M358.1,158.4c-16.8,20.4-42.3,33.3-70.7,33.3c-50.6,0-91.8-41.2-91.8-91.8c0-11.1,2-21.7,5.6-31.5
				c-1-0.2-2-0.3-3.1-0.4c-1.1-0.1-2.1-0.2-3.1-0.2c-3.5,10.1-5.4,20.9-5.4,32.1c0,53.9,43.9,97.8,97.8,97.8
				c32,0,60.5-15.5,78.4-39.3H358.1z"/>
		</g>
	</g>
	<path class="st2" d="M340.6,144.5c-3.4,0.6-15,2.5-25.3-4.7c-4.6-3.3-7.3-7.3-8.7-9.8c-8.8,21.9-24.7,34.7-38,32.6
		c-6.5-1-11-5.4-12.3-6.8c-13.4-13.5-6.9-37.9-5.2-44.4c1.3-5,3.1-9.3,4.8-12.8c1.3-2.6,4.9-3.1,6.8-0.9c6,6.9,14.3,10.7,14.3,10.7
		c-1.2-4.3-1.6-8.9-1.5-13.6c0.5-13.7,7.5-26.3,18.5-34.5c0.6-0.4,1.2-0.9,1.8-1.4c10.1-7.9,18.3-18.2,23.8-29.9
		c-9.6-4.4-20.2-6.8-31.4-6.9c-0.3,0-0.5,0-0.8,0c-5.4,0-10.7,0.6-15.8,1.6c-5,1-9.9,2.6-14.5,4.5c1,7.5,4.5,21.9,16.1,29.7
		c0,0-15.9-2.5-25.7-24.8c0,0,0,0,0,0l0,0c0,0-29.5-1.6-50.1,26.4c0,0,8.2,0.2,16.5,2c2.6,0.6,4,3.4,2.9,5.7c-0.5,1.1-1,2.2-1.4,3.3
		c-3.7,9-5.7,18.9-5.7,29.3c0,31.6,18.8,58.7,45.8,70.9c0,0,0.1,0.1,0.7,0.3c9.6,4.2,20.1,6.5,31.2,6.5c0.3,0,0.7,0,1,0
		c28.2-0.4,52.8-15.8,66.2-38.6c0,0,0,0,0,0C349,142.6,343.8,143.9,340.6,144.5z M287.4,30.5c3.6,0,6.5,2.9,6.5,6.5
		c0,3.6-2.9,6.5-6.5,6.5c-3.6,0-6.5-2.9-6.5-6.5C281,33.4,283.9,30.5,287.4,30.5z"/>
	<path class="st2" d="M319.5,130.8v-18.4h6.4v4.5c3,5.5,7,8.3,11.9,8.3c2.5,0,4.6-0.8,6.4-2.3c1.7-1.5,2.6-3.5,2.6-6
		c0-2.4-0.7-4.1-2.1-5.2c-1.4-1.1-4.1-2.1-8-3.2c-4.6-1.2-7.9-2.4-10.1-3.5s-3.9-2.6-5.2-4.6c-1.3-2-2-4.4-2-7.1
		c0-4.3,1.4-7.7,4.3-10.2c2.8-2.5,6.4-3.8,10.7-3.8c4.1,0,7.8,1.3,11.3,3.9v-3.4h6.2v15.4h-6.2v-3.5c-2.6-3.9-6.2-5.9-10.8-5.9
		c-2.8,0-4.9,0.6-6.4,1.9c-1.5,1.3-2.2,2.8-2.2,4.6c0,1.4,0.4,2.6,1.1,3.6c0.8,1,1.7,1.8,2.9,2.3c1.2,0.5,3.5,1.2,6.9,2
		c4.5,1.2,7.7,2.3,9.8,3.3c2,1,3.8,2.7,5.2,5.1c1.5,2.4,2.2,5.1,2.2,8.1c0,4.3-1.5,7.9-4.6,10.7c-3.1,2.8-6.8,4.2-11.3,4.2
		c-4.6,0-8.8-1.7-12.5-5v4.2H319.5z"/>
	<path class="st2" d="M395.4,124.6v6.2h-12.1v-4.3c-3.4,3.3-7.1,4.9-11.2,4.9c-3.2,0-6-1-8.4-3.1c-2.4-2.1-3.6-4.8-3.6-8
		c0-3.3,1.3-6,3.8-8.2c2.5-2.2,5.6-3.3,9.1-3.3c3.3,0,6.5,1,9.6,3v-3.5c0-1.8-0.2-3.2-0.5-4.2c-0.3-1-1.1-1.9-2.4-2.6
		c-1.3-0.8-2.9-1.2-4.9-1.2c-3.5,0-6,1.4-7.6,4.2l-6.6-1.8c2.9-5.5,8-8.3,15.3-8.3c2.7,0,4.9,0.4,6.9,1.1c1.9,0.7,3.4,1.6,4.3,2.8
		c0.9,1.1,1.6,2.4,1.9,3.7s0.5,3.4,0.5,6.3v16.4H395.4z M382.6,117.7c-3-2.3-6-3.5-9.1-3.5c-1.9,0-3.5,0.6-4.8,1.7
		c-1.3,1.1-1.9,2.6-1.9,4.3c0,1.7,0.6,3,1.7,4.2c1.1,1.1,2.7,1.7,4.6,1.7c3.4,0,6.5-1.4,9.5-4.2V117.7z"/>
	<path class="st2" d="M404.1,124.6V86.2h-6.3V80H411v44.6h5.4v6.2h-18.6v-6.2H404.1z"/>
	<path class="st2" d="M420.4,101.6v-6.2h4.6V90l6.9-6.4v11.8h6.5v6.2H432v17.2c0,2.8,0.2,4.4,0.5,5.1c0.3,0.6,1.1,1,2.3,1
		c1.3,0,2.6-0.2,3.8-0.7v6.3c-1.8,0.6-3.6,0.9-5.3,0.9c-2.1,0-3.8-0.5-5.1-1.4c-1.3-0.9-2.1-2.1-2.5-3.5s-0.5-3.8-0.5-7.3v-17.5
		H420.4z"/>
	<path class="st2" d="M458.8,130.2l-11.6-28.6h-5.9v-6.2h17.5v6.2h-4.2l7.6,19.6l7.5-19.6h-4.7v-6.2h17.1v6.2h-5.3l-17.5,45h-11.7
		v-6.1h6.9L458.8,130.2z"/>
	<g>
		<path class="st0" d="M504.1,130.8v-18.4h6.4v4.5c3,5.5,7,8.3,11.9,8.3c2.5,0,4.6-0.8,6.4-2.3c1.7-1.5,2.6-3.5,2.6-6
			c0-2.4-0.7-4.1-2.1-5.2c-1.4-1.1-4.1-2.1-8-3.2c-4.6-1.2-7.9-2.4-10.1-3.5c-2.2-1.1-3.9-2.6-5.2-4.6c-1.3-2-2-4.4-2-7.1
			c0-4.3,1.4-7.7,4.3-10.2c2.8-2.5,6.4-3.8,10.7-3.8c4.1,0,7.8,1.3,11.3,3.9v-3.4h6.2v15.4h-6.2v-3.5c-2.6-3.9-6.2-5.9-10.8-5.9
			c-2.8,0-4.9,0.6-6.4,1.9c-1.5,1.3-2.2,2.8-2.2,4.6c0,1.4,0.4,2.6,1.1,3.6c0.8,1,1.7,1.8,2.9,2.3s3.5,1.2,6.9,2
			c4.5,1.2,7.7,2.3,9.8,3.3c2,1,3.8,2.7,5.2,5.1c1.5,2.4,2.2,5.1,2.2,8.1c0,4.3-1.5,7.9-4.6,10.7c-3.1,2.8-6.8,4.2-11.3,4.2
			c-4.6,0-8.8-1.7-12.5-5v4.2H504.1z"/>
		<path class="st0" d="M544.1,113.1c0-5.5,1.8-9.9,5.4-13.4c3.6-3.5,8-5.2,13.2-5.2c5.1,0,9.5,1.7,13.1,5.2s5.5,7.9,5.5,13.5
			c0,5.6-1.8,10.1-5.5,13.5c-3.6,3.5-8,5.2-13.1,5.2c-5.3,0-9.7-1.8-13.2-5.3C545.9,123.1,544.1,118.6,544.1,113.1z M551.4,113.1
			c0,3.5,1.1,6.3,3.3,8.6c2.2,2.2,4.8,3.3,8,3.3c3.2,0,5.9-1.1,8-3.4c2.2-2.3,3.2-5.1,3.2-8.5c0-3.5-1.1-6.3-3.3-8.6s-4.8-3.4-8-3.4
			c-3.3,0-6,1.1-8.1,3.4C552.5,106.9,551.4,109.8,551.4,113.1z"/>
		<path class="st0" d="M591.9,124.6V86.2h-6.3V80h13.2v44.6h5.4v6.2h-18.6v-6.2H591.9z"/>
		<path class="st0" d="M647.3,124.6v6.2h-13v-4.1c-4.1,3.1-8,4.6-11.7,4.6c-2.4,0-4.3-0.5-5.9-1.6c-1.5-1-2.6-2.4-3.1-4
			c-0.5-1.6-0.8-4.3-0.8-7.9v-16.3h-5v-6.2h11.9V117c0,2.6,0.1,4.4,0.2,5.3c0.1,0.9,0.6,1.6,1.3,2.2s1.6,0.9,2.7,0.9
			c3.2,0,6.6-1.5,10.3-4.6v-19.1h-6.2v-6.2h13.2v29.2H647.3z"/>
		<path class="st0" d="M650.3,101.6v-6.2h4.6V90l6.9-6.4v11.8h6.5v6.2h-6.5v17.2c0,2.8,0.2,4.4,0.5,5.1c0.3,0.6,1.1,1,2.3,1
			c1.3,0,2.6-0.2,3.8-0.7v6.3c-1.8,0.6-3.6,0.9-5.3,0.9c-2.1,0-3.8-0.5-5.1-1.4c-1.3-0.9-2.1-2.1-2.5-3.5s-0.5-3.8-0.5-7.3v-17.5
			H650.3z"/>
		<path class="st0" d="M678.6,124.6v-23h-5.5v-6.2h12.4v29.2h5.5v6.2h-17.9v-6.2H678.6z M677.6,83.4c0-1.1,0.4-2.1,1.2-2.9
			s1.8-1.2,3-1.2c1.1,0,2.1,0.4,3,1.2c0.8,0.8,1.2,1.8,1.2,3c0,1.2-0.4,2.2-1.2,3c-0.8,0.8-1.8,1.2-3,1.2c-1.2,0-2.2-0.4-3-1.2
			C678,85.6,677.6,84.6,677.6,83.4z"/>
		<path class="st0" d="M695.3,113.1c0-5.5,1.8-9.9,5.4-13.4c3.6-3.5,8-5.2,13.2-5.2c5.1,0,9.5,1.7,13.1,5.2s5.5,7.9,5.5,13.5
			c0,5.6-1.8,10.1-5.5,13.5c-3.6,3.5-8,5.2-13.1,5.2c-5.3,0-9.7-1.8-13.2-5.3C697.1,123.1,695.3,118.6,695.3,113.1z M702.7,113.1
			c0,3.5,1.1,6.3,3.3,8.6c2.2,2.2,4.8,3.3,8,3.3c3.2,0,5.9-1.1,8-3.4c2.2-2.3,3.2-5.1,3.2-8.5c0-3.5-1.1-6.3-3.3-8.6s-4.8-3.4-8-3.4
			c-3.3,0-6,1.1-8.1,3.4S702.7,109.8,702.7,113.1z"/>
		<path class="st0" d="M750.5,95.5v4.3c4.5-3.2,8.5-4.8,12.2-4.8c2.3,0,4.2,0.5,5.7,1.6c1.5,1.1,2.5,2.4,2.9,4
			c0.5,1.6,0.7,3.9,0.7,6.9v17.2h6v6.2h-12.9v-23.1c0-2.7-0.4-4.4-1.2-5.2c-0.8-0.8-1.8-1.2-3-1.2c-3.1,0-6.5,1.5-10.4,4.5v18.9h6.1
			v6.2h-19.2v-6.2h6.2v-23h-6.2v-6.2H750.5z"/>
		<path class="st0" d="M781.3,130.8v-12.1h6.2v1.2c0.2,1.7,1.1,3,2.7,4.1c1.6,1.1,3.4,1.6,5.6,1.6c2.2,0,4-0.4,5.4-1.2
			c1.3-0.8,2-1.9,2-3.3c0-1.3-0.6-2.3-1.7-3c-1.1-0.6-3.3-1.2-6.6-1.7c-4.9-0.8-8.3-2.2-10.4-4c-2.1-1.8-3.1-4.2-3.1-7.1
			c0-2.9,1.1-5.4,3.4-7.4c2.3-2,5.2-3,8.9-3c3.3,0,6.2,0.7,8.6,2.1v-1.5h6.2v11.7h-6.2V105c-1.9-2.9-4.6-4.3-8.2-4.3
			c-1.8,0-3.3,0.4-4.5,1.2s-1.8,1.8-1.8,3.2c0,1.3,0.5,2.3,1.6,2.8c1.1,0.5,3.4,1,7,1.6c3.4,0.5,6,1.2,7.8,1.9
			c1.8,0.7,3.2,1.9,4.4,3.6c1.2,1.7,1.7,3.6,1.7,5.8c0,3.3-1.3,5.9-3.8,7.8c-2.5,1.9-5.8,2.9-9.8,2.9c-3.8,0-6.9-0.9-9.2-2.6v2
			H781.3z"/>
	</g>
</g>
</svg>
