<svg xmlns="http://www.w3.org/2000/svg" viewBox="0 0 622 196" width="622" height="196">
	<style>
		tspan { white-space:pre }
		.shp0 { fill: #FFC857 } 
		.shp1 { fill: #ffffff } 
	</style>
	<g id="Layer">
		<g id="Layer">
			<g id="Layer">
				<path id="Layer" class="shp0" d="M98.4 6.2C139.3 6.2 174.1 33.1 185.9 70.2L192.2 70.2C180.2 29.8 142.7 0.2 98.4 0.2C70.2 0.2 44.8 12.2 26.9 31.4C32.4 28.6 37.5 26.9 42 25.7C57.6 13.5 77.2 6.2 98.4 6.2Z" />
				<path id="Layer" class="shp0" d="M169.1 156.4C152.3 176.8 126.8 189.7 98.4 189.7C47.8 189.7 6.6 148.5 6.6 97.9C6.6 86.8 8.6 76.2 12.2 66.4C11.2 66.2 10.2 66.1 9.1 66C8 65.9 7 65.8 6 65.8C2.5 75.9 0.6 86.7 0.6 97.9C0.6 151.8 44.5 195.7 98.4 195.7C130.4 195.7 158.9 180.2 176.8 156.4L169.1 156.4L169.1 156.4Z" />
			</g>
		</g>
		<path id="Layer" fill-rule="evenodd" class="shp1" d="M165.6 136.9C152.2 159.7 127.6 175.1 99.4 175.5C99.1 175.5 98.7 175.5 98.4 175.5C87.3 175.5 76.8 173.2 67.2 169C66.6 168.8 66.5 168.7 66.5 168.7C39.5 156.5 20.7 129.4 20.7 97.8C20.7 87.4 22.7 77.5 26.4 68.5C26.8 67.4 27.3 66.3 27.8 65.2C28.9 62.9 27.5 60.1 24.9 59.5C16.6 57.7 8.4 57.5 8.4 57.5C29 29.5 58.5 31.1 58.5 31.1C68.3 53.4 84.2 55.9 84.2 55.9C72.6 48.1 69.1 33.7 68.1 26.2C72.7 24.3 77.6 22.7 82.6 21.7C87.7 20.7 93 20.1 98.4 20.1C98.7 20.1 98.9 20.1 99.2 20.1C110.4 20.2 121 22.6 130.6 27C125.1 38.7 116.9 49 106.8 56.9C106.2 57.4 105.6 57.9 105 58.3C94 66.5 87 79.1 86.5 92.8C86.4 97.5 86.8 102.1 88 106.4C88 106.4 79.7 102.6 73.7 95.7C71.8 93.5 68.2 94 66.9 96.6C65.2 100.1 63.4 104.4 62.1 109.4C60.4 115.9 53.9 140.3 67.3 153.8C68.6 155.2 73.1 159.6 79.6 160.6C92.9 162.7 108.8 149.9 117.6 128C119 130.5 121.7 134.5 126.3 137.8C136.6 145 148.2 143.1 151.6 142.5C154.8 141.9 160 140.6 165.6 136.9ZM91.9 35C91.9 38.6 94.8 41.5 98.4 41.5C102 41.5 104.9 38.6 104.9 35C104.9 31.4 102 28.5 98.4 28.5C94.9 28.5 92 31.4 91.9 35Z" />
		<path id="Layer" class="shp1" d="M130.5 128.8L130.5 110.4L136.9 110.4L136.9 114.9C139.9 120.4 143.9 123.2 148.8 123.2C151.3 123.2 153.4 122.4 155.2 120.9C156.9 119.4 157.8 117.4 157.8 114.9C157.8 112.5 157.1 110.8 155.7 109.7C154.3 108.6 151.6 107.6 147.7 106.5C143.1 105.3 139.8 104.1 137.6 103C135.4 101.9 133.7 100.4 132.4 98.4C131.1 96.4 130.4 94 130.4 91.3C130.4 87 131.8 83.6 134.7 81.1C137.5 78.6 141.1 77.3 145.4 77.3C149.5 77.3 153.2 78.6 156.7 81.2L156.7 77.8L162.9 77.8L162.9 93.2L156.7 93.2L156.7 89.7C154.1 85.8 150.5 83.8 145.9 83.8C143.1 83.8 141 84.4 139.5 85.7C138 87 137.3 88.5 137.3 90.3C137.3 91.7 137.7 92.9 138.4 93.9C139.2 94.9 140.1 95.7 141.3 96.2C142.5 96.7 144.8 97.4 148.2 98.2C152.7 99.4 155.9 100.5 158 101.5C160 102.5 161.8 104.2 163.2 106.6C164.7 109 165.4 111.7 165.4 114.7C165.4 119 163.9 122.6 160.8 125.4C157.7 128.2 154 129.6 149.5 129.6C144.9 129.6 140.7 127.9 137 124.6L137 128.8L130.5 128.8L130.5 128.8Z" />
		<path id="Layer" fill-rule="evenodd" class="shp1" d="M206.4 128.8L194.3 128.8L194.3 124.5C190.9 127.8 187.2 129.4 183.1 129.4C179.9 129.4 177.1 128.4 174.7 126.3C172.3 124.2 171.1 121.5 171.1 118.3C171.1 115 172.4 112.3 174.9 110.1C177.4 107.9 180.5 106.8 184 106.8C187.3 106.8 190.5 107.8 193.6 109.8L193.6 106.3C193.6 104.5 193.4 103.1 193.1 102.1C192.8 101.1 192 100.2 190.7 99.5C189.4 98.7 187.8 98.3 185.8 98.3C182.3 98.3 179.8 99.7 178.2 102.5L171.6 100.7C174.5 95.2 179.6 92.4 186.9 92.4C189.6 92.4 191.8 92.8 193.8 93.5C195.7 94.2 197.2 95.1 198.1 96.3C199 97.4 199.7 98.7 200 100C200.3 101.3 200.5 103.4 200.5 106.3L200.5 122.7L206.4 122.7L206.4 128.8ZM193.6 115.7C190.6 113.4 187.6 112.2 184.5 112.2C182.6 112.2 181 112.8 179.7 113.9C178.4 115 177.8 116.5 177.8 118.2C177.8 119.9 178.4 121.2 179.5 122.4C180.6 123.5 182.2 124.1 184.1 124.1C187.5 124.1 190.6 122.7 193.6 119.9L193.6 115.7Z" />
		<path id="Layer" class="shp1" d="M215.1 122.6L215.1 84.2L208.8 84.2L208.8 78L222 78L222 122.6L227.4 122.6L227.4 128.8L208.8 128.8L208.8 122.6L215.1 122.6L215.1 122.6Z" />
		<path id="Layer" class="shp1" d="M231.4 99.6L231.4 93.4L236 93.4L236 88L242.9 81.6L242.9 93.4L249.4 93.4L249.4 99.6L243 99.6L243 116.8C243 119.6 243.2 121.2 243.5 121.9C243.8 122.5 244.6 122.9 245.8 122.9C247.1 122.9 248.4 122.7 249.6 122.2L249.6 128.5C247.8 129.1 246 129.4 244.3 129.4C242.2 129.4 240.5 128.9 239.2 128C237.9 127.1 237.1 125.9 236.7 124.5C236.3 123.1 236.2 120.7 236.2 117.2L236.2 99.7L231.4 99.7L231.4 99.6Z" />
		<path id="Layer" class="shp1" d="M269.8 128.2L258.2 99.6L252.3 99.6L252.3 93.4L269.8 93.4L269.8 99.6L265.6 99.6L273.2 119.2L280.7 99.6L276 99.6L276 93.4L293.1 93.4L293.1 99.6L287.8 99.6L270.3 144.6L258.6 144.6L258.6 138.5L265.5 138.5L269.8 128.2Z" />
		<g id="Layer">
			<path id="Layer" class="shp0" d="M315.1 128.8L315.1 110.4L321.5 110.4L321.5 114.9C324.5 120.4 328.5 123.2 333.4 123.2C335.9 123.2 338 122.4 339.8 120.9C341.5 119.4 342.4 117.4 342.4 114.9C342.4 112.5 341.7 110.8 340.3 109.7C338.9 108.6 336.2 107.6 332.3 106.5C327.7 105.3 324.4 104.1 322.2 103C320 101.9 318.3 100.4 317 98.4C315.7 96.4 315 94 315 91.3C315 87 316.4 83.6 319.3 81.1C322.1 78.6 325.7 77.3 330 77.3C334.1 77.3 337.8 78.6 341.3 81.2L341.3 77.8L347.5 77.8L347.5 93.2L341.3 93.2L341.3 89.7C338.7 85.8 335.1 83.8 330.5 83.8C327.7 83.8 325.6 84.4 324.1 85.7C322.6 87 321.9 88.5 321.9 90.3C321.9 91.7 322.3 92.9 323 93.9C323.8 94.9 324.7 95.7 325.9 96.2C327.1 96.7 329.4 97.4 332.8 98.2C337.3 99.4 340.5 100.5 342.6 101.5C344.6 102.5 346.4 104.2 347.8 106.6C349.3 109 350 111.7 350 114.7C350 119 348.5 122.6 345.4 125.4C342.3 128.2 338.6 129.6 334.1 129.6C329.5 129.6 325.3 127.9 321.6 124.6L321.6 128.8L315.1 128.8L315.1 128.8Z" />
			<path id="Layer" fill-rule="evenodd" class="shp0" d="M355.1 111.1C355.1 105.6 356.9 101.2 360.5 97.7C364.1 94.2 368.5 92.5 373.7 92.5C378.8 92.5 383.2 94.2 386.8 97.7C390.4 101.2 392.3 105.6 392.3 111.2C392.3 116.8 390.5 121.3 386.8 124.7C383.2 128.2 378.8 129.9 373.7 129.9C368.4 129.9 364 128.1 360.5 124.6C356.9 121.1 355.1 116.6 355.1 111.1ZM362.4 111.1C362.4 114.6 363.5 117.4 365.7 119.7C367.9 121.9 370.5 123 373.7 123C376.9 123 379.6 121.9 381.7 119.6C383.9 117.3 384.9 114.5 384.9 111.1C384.9 107.6 383.8 104.8 381.6 102.5C379.4 100.2 376.8 99.1 373.6 99.1C370.3 99.1 367.6 100.2 365.5 102.5C363.5 104.9 362.4 107.8 362.4 111.1Z" />
			<path id="Layer" class="shp0" d="M402.9 122.6L402.9 84.2L396.6 84.2L396.6 78L409.8 78L409.8 122.6L415.2 122.6L415.2 128.8L396.6 128.8L396.6 122.6L402.9 122.6L402.9 122.6Z" />
			<path id="Layer" class="shp0" d="M458.3 122.6L458.3 128.8L445.3 128.8L445.3 124.7C441.2 127.8 437.3 129.3 433.6 129.3C431.2 129.3 429.3 128.8 427.7 127.7C426.2 126.7 425.1 125.3 424.6 123.7C424.1 122.1 423.8 119.4 423.8 115.8L423.8 99.5L418.8 99.5L418.8 93.3L430.7 93.3L430.7 115C430.7 117.6 430.8 119.4 430.9 120.3C431 121.2 431.5 121.9 432.2 122.5C432.9 123.1 433.8 123.4 434.9 123.4C438.1 123.4 441.5 121.9 445.2 118.8L445.2 99.7L439 99.7L439 93.5L452.2 93.5L452.2 122.7L458.3 122.7L458.3 122.6Z" />
			<path id="Layer" class="shp0" d="M461.3 99.6L461.3 93.4L465.9 93.4L465.9 88L472.8 81.6L472.8 93.4L479.3 93.4L479.3 99.6L472.8 99.6L472.8 116.8C472.8 119.6 473 121.2 473.3 121.9C473.6 122.5 474.4 122.9 475.6 122.9C476.9 122.9 478.2 122.7 479.4 122.2L479.4 128.5C477.6 129.1 475.8 129.4 474.1 129.4C472 129.4 470.3 128.9 469 128C467.7 127.1 466.9 125.9 466.5 124.5C466.1 123.1 466 120.7 466 117.2L466 99.7L461.3 99.7L461.3 99.6Z" />
			<path id="Layer" class="shp0" d="M489.6 122.6L489.6 99.6L484.1 99.6L484.1 93.4L496.5 93.4L496.5 122.6L502 122.6L502 128.8L484.1 128.8L484.1 122.6L489.6 122.6L489.6 122.6ZM488.6 81.4C488.6 80.3 489 79.3 489.8 78.5C490.6 77.7 491.6 77.3 492.8 77.3C493.9 77.3 494.9 77.7 495.8 78.5C496.6 79.3 497 80.3 497 81.5C497 82.7 496.6 83.7 495.8 84.5C495 85.3 494 85.7 492.8 85.7C491.6 85.7 490.6 85.3 489.8 84.5C489 83.6 488.6 82.6 488.6 81.4Z" />
			<path id="Layer" fill-rule="evenodd" class="shp0" d="M506.3 111.1C506.3 105.6 508.1 101.2 511.7 97.7C515.3 94.2 519.7 92.5 524.9 92.5C530 92.5 534.4 94.2 538 97.7C541.6 101.2 543.5 105.6 543.5 111.2C543.5 116.8 541.7 121.3 538 124.7C534.4 128.2 530 129.9 524.9 129.9C519.6 129.9 515.2 128.1 511.7 124.6C508.1 121.1 506.3 116.6 506.3 111.1ZM513.7 111.1C513.7 114.6 514.8 117.4 517 119.7C519.2 121.9 521.8 123 525 123C528.2 123 530.9 121.9 533 119.6C535.2 117.3 536.2 114.5 536.2 111.1C536.2 107.6 535.1 104.8 532.9 102.5C530.7 100.2 528.1 99.1 524.9 99.1C521.6 99.1 518.9 100.2 516.8 102.5C514.7 104.8 513.7 107.8 513.7 111.1Z" />
			<path id="Layer" class="shp0" d="M561.5 93.5L561.5 97.8C566 94.6 570 93 573.7 93C576 93 577.9 93.5 579.4 94.6C580.9 95.7 581.9 97 582.3 98.6C582.8 100.2 583 102.5 583 105.5L583 122.7L589 122.7L589 128.9L576.1 128.9L576.1 105.8C576.1 103.1 575.7 101.4 574.9 100.6C574.1 99.8 573.1 99.4 571.9 99.4C568.8 99.4 565.4 100.9 561.5 103.9L561.5 122.8L567.6 122.8L567.6 129L548.4 129L548.4 122.8L554.6 122.8L554.6 99.8L548.4 99.8L548.4 93.6L561.5 93.6L561.5 93.5Z" />
			<path id="Layer" class="shp0" d="M592.3 128.8L592.3 116.7L598.5 116.7L598.5 117.9C598.7 119.6 599.6 120.9 601.2 122C602.8 123.1 604.6 123.6 606.8 123.6C609 123.6 610.8 123.2 612.2 122.4C613.5 121.6 614.2 120.5 614.2 119.1C614.2 117.8 613.6 116.8 612.5 116.1C611.4 115.5 609.2 114.9 605.9 114.4C601 113.6 597.6 112.2 595.5 110.4C593.4 108.6 592.4 106.2 592.4 103.3C592.4 100.4 593.5 97.9 595.8 95.9C598.1 93.9 601 92.9 604.7 92.9C608 92.9 610.9 93.6 613.3 95L613.3 93.5L619.5 93.5L619.5 105.2L613.3 105.2L613.3 103C611.4 100.1 608.7 98.7 605.1 98.7C603.3 98.7 601.8 99.1 600.6 99.9C599.4 100.7 598.8 101.7 598.8 103.1C598.8 104.4 599.3 105.4 600.4 105.9C601.5 106.4 603.8 106.9 607.4 107.5C610.8 108 613.4 108.7 615.2 109.4C617 110.1 618.4 111.3 619.6 113C620.8 114.7 621.3 116.6 621.3 118.8C621.3 122.1 620 124.7 617.5 126.6C615 128.5 611.7 129.5 607.7 129.5C603.9 129.5 600.8 128.6 598.5 126.9L598.5 128.9L592.3 128.9L592.3 128.8Z" />
		</g>
	</g>
</svg>