<?xml version="1.0" encoding="utf-8"?>
<!-- Generator: Adobe Illustrator 23.0.6, SVG Export Plug-In . SVG Version: 6.00 Build 0)  -->
<svg version="1.1" id="Layer_1" xmlns="http://www.w3.org/2000/svg" xmlns:xlink="http://www.w3.org/1999/xlink" x="0px" y="0px"
	 viewBox="0 0 1000 200" style="enable-background:new 0 0 1000 200;" xml:space="preserve">
<style type="text/css">
	.st0{fill:#F2A444;}
	.st1{fill:#FFFFFF;}
	.st2{fill:#124673;}
</style>
<g>
	<g>
		<path class="st0" d="M316.2,8.2c40.9,0,75.7,26.9,87.5,64h6.3c-12-40.4-49.5-70-93.8-70c-28.2,0-53.6,12-71.5,31.2
			c5.5-2.8,10.6-4.5,15.1-5.7C275.4,15.5,295,8.2,316.2,8.2z"/>
		<path class="st0" d="M386.9,158.4c-16.8,20.4-42.3,33.3-70.7,33.3c-50.6,0-91.8-41.2-91.8-91.8c0-11.1,2-21.7,5.6-31.5
			c-1-0.2-2-0.3-3.1-0.4c-1.1-0.1-2.1-0.2-3.1-0.2c-3.5,10.1-5.4,20.9-5.4,32.1c0,53.9,43.9,97.8,97.8,97.8
			c32,0,60.5-15.5,78.4-39.3H386.9z"/>
	</g>
	<path class="st2" d="M369.4,144.5c-3.4,0.6-15,2.5-25.3-4.7c-4.6-3.3-7.3-7.3-8.7-9.8c-8.8,21.9-24.7,34.7-38,32.6
		c-6.5-1-11-5.4-12.3-6.8c-13.4-13.5-6.9-37.9-5.2-44.4c1.3-5,3.1-9.3,4.8-12.8c1.3-2.6,4.9-3.1,6.8-0.9c6,6.9,14.3,10.7,14.3,10.7
		c-1.2-4.3-1.6-8.9-1.5-13.6c0.5-13.7,7.5-26.3,18.5-34.5c0.6-0.4,1.2-0.9,1.8-1.4c10.1-7.9,18.3-18.2,23.8-29.9
		c-9.6-4.4-20.2-6.8-31.4-6.9c-0.3,0-0.5,0-0.8,0c-5.4,0-10.7,0.6-15.8,1.6c-5,1-9.9,2.6-14.5,4.5c1,7.5,4.5,21.9,16.1,29.7
		c0,0-15.9-2.5-25.7-24.8c0,0,0,0,0,0l0,0c0,0-29.5-1.6-50.1,26.4c0,0,8.2,0.2,16.5,2c2.6,0.6,4,3.4,2.9,5.7c-0.5,1.1-1,2.2-1.4,3.3
		c-3.7,9-5.7,18.9-5.7,29.3c0,31.6,18.8,58.7,45.8,70.9c0,0,0.1,0.1,0.7,0.3c9.6,4.2,20.1,6.5,31.2,6.5c0.3,0,0.7,0,1,0
		c28.2-0.4,52.8-15.8,66.2-38.6c0,0,0,0,0,0C377.8,142.6,372.6,143.9,369.4,144.5z M316.2,30.5c3.6,0,6.5,2.9,6.5,6.5
		c0,3.6-2.9,6.5-6.5,6.5c-3.6,0-6.5-2.9-6.5-6.5C309.7,33.4,312.6,30.5,316.2,30.5z"/>
	<path class="st2" d="M346,113.1h10.5v3.6c0,3.5,0.4,5.8,1.3,7.1c0.9,1.3,2.4,1.9,4.5,1.9c2.2,0,3.9-0.6,5.1-1.7
		c1.2-1.1,1.7-2.8,1.7-5c0-1.7-0.4-3.1-1.2-4.3c-0.8-1.2-2.5-2.8-5.2-4.7l-5.4-3.8c-4.6-3.2-7.6-5.9-8.8-8c-1.3-2.1-1.9-4.7-1.9-7.9
		c0-4.7,1.4-8.4,4.2-11.1c2.8-2.7,6.7-4,11.6-4c5.2,0,9.2,1.4,12,4.3c2.8,2.8,4.2,6.9,4.2,12.3c0,0.5,0,0.9,0,1.2
		c0,0.3,0,0.5-0.1,0.8h-9.9v-1.5c0-3-0.5-5.2-1.5-6.5c-1-1.3-2.6-2-4.9-2c-1.7,0-3,0.5-4,1.5c-1,1-1.4,2.4-1.4,4.1
		c0,2.4,2.2,5,6.5,7.9c0,0,0.1,0,0.1,0.1l5.8,3.9c4.1,2.7,6.9,5.3,8.4,7.7s2.2,5.5,2.2,9.3c0,5.1-1.5,9.1-4.4,11.8
		c-2.9,2.8-7.1,4.2-12.5,4.2c-5.6,0-9.9-1.5-12.6-4.4c-2.8-2.9-4.1-7.4-4.1-13.4c0-0.6,0-1.7,0.1-3.1V113.1z"/>
	<path class="st2" d="M407.5,132.8c-0.2-0.3-0.4-0.8-0.6-1.4c-0.2-0.6-0.3-1.5-0.5-2.7c-1,1.7-2.3,3-4,3.9c-1.6,0.9-3.5,1.3-5.7,1.3
		c-3.2,0-5.7-1.1-7.5-3.3s-2.7-5.2-2.7-9c0-3.5,0.8-6.3,2.4-8.3s4.7-4.1,9.3-6.2c0.5-0.2,1.1-0.5,2-0.9c3.8-1.6,5.7-3.5,5.7-5.7
		c0-1.3-0.4-2.4-1.1-3.1c-0.7-0.7-1.8-1.1-3.2-1.1c-1.8,0-3.1,0.5-3.9,1.4c-0.8,1-1.3,2.4-1.3,4.5v0.8H387c0-4.7,1.2-8.2,3.5-10.4
		c2.3-2.2,6.1-3.3,11.2-3.3c5.1,0,8.7,1,10.8,3c2.1,2,3.1,5.5,3.1,10.4v23.8c0,1.2,0.1,2.2,0.3,3.2c0.2,1,0.6,1.9,1.1,2.9H407.5z
		 M406.2,110.7c-3.7,1.9-6.2,3.5-7.5,5c-1.3,1.5-2,3.2-2,5.2c0,1.9,0.3,3.3,1,4.1s1.8,1.3,3.3,1.3c1.7,0,3-0.7,3.8-2.2
		c0.9-1.5,1.3-3.7,1.3-6.7V110.7z"/>
	<path class="st2" d="M423.7,132.8V76.6h9.7v56.2H423.7z"/>
	<path class="st2" d="M452.2,117.2v2.8c0,2.3,0.2,3.7,0.6,4.3c0.4,0.6,1.2,0.9,2.4,0.9c0.3,0,0.5,0,0.6,0c0.2,0,0.3,0,0.4,0v7.6
		c-1.4,0.1-2.5,0.2-3.3,0.3c-0.8,0-1.4,0.1-1.9,0.1c-3.3,0-5.5-0.7-6.8-2c-1.2-1.3-1.8-4-1.8-8.1V97.8h-3.8v-7.3h3.8V79h9.8v11.5
		h4.1v7.3h-4.1V117.2z"/>
	<path class="st2" d="M464.4,146.7v-7.3c0.2,0,0.4,0,0.6,0s0.5,0,0.9,0c1.4,0,2.4-0.2,3-0.7c0.6-0.5,0.9-1.2,0.9-2.2
		c0-0.3,0-0.7-0.1-1.1c-0.1-0.4-0.2-0.9-0.3-1.3l-10.8-43.6h10.3l5.8,30.5l5.7-30.5h9.9l-11,46.2c-1,4-2.3,6.7-3.9,8.1
		c-1.6,1.4-4.2,2.1-7.7,2.1c-0.5,0-1.1,0-1.7-0.1S465,146.8,464.4,146.7z"/>
	<g>
		<path class="st0" d="M513.6,113.1h10.5v3.6c0,3.5,0.4,5.8,1.3,7.1c0.9,1.3,2.4,1.9,4.5,1.9c2.2,0,3.9-0.6,5.1-1.7s1.7-2.8,1.7-5
			c0-1.7-0.4-3.1-1.2-4.3c-0.8-1.2-2.5-2.8-5.2-4.7l-5.4-3.8c-4.6-3.2-7.6-5.9-8.8-8c-1.3-2.1-1.9-4.7-1.9-7.9
			c0-4.7,1.4-8.4,4.2-11.1s6.7-4,11.6-4c5.2,0,9.2,1.4,12,4.3c2.8,2.8,4.2,6.9,4.2,12.3c0,0.5,0,0.9,0,1.2c0,0.3,0,0.5-0.1,0.8h-9.9
			v-1.5c0-3-0.5-5.2-1.5-6.5c-1-1.3-2.6-2-4.9-2c-1.7,0-3,0.5-4,1.5s-1.4,2.4-1.4,4.1c0,2.4,2.2,5,6.5,7.9c0,0,0.1,0,0.1,0.1
			l5.8,3.9c4.1,2.7,6.9,5.3,8.4,7.7s2.2,5.5,2.2,9.3c0,5.1-1.5,9.1-4.4,11.8c-2.9,2.8-7.1,4.2-12.5,4.2c-5.6,0-9.9-1.5-12.6-4.4
			c-2.8-2.9-4.1-7.4-4.1-13.4c0-0.6,0-1.7,0.1-3.1V113.1z"/>
		<path class="st0" d="M553.9,111.7c0-8.5,1.1-14.4,3.3-17.5c2.2-3.2,6.1-4.7,11.6-4.7c5.6,0,9.4,1.6,11.6,4.7
			c2.2,3.2,3.3,9,3.3,17.5c0,8.5-1.1,14.4-3.3,17.5c-2.2,3.2-6.1,4.7-11.6,4.7c-5.5,0-9.4-1.6-11.6-4.7
			C555,126.1,553.9,120.2,553.9,111.7z M563.9,111.3v1c0,6.5,0.3,10.6,1,12c0.7,1.5,1.9,2.2,3.8,2.2c1.9,0,3.3-0.7,3.9-2.1
			c0.7-1.4,1-4.9,1-10.7V112v-2.4c0-5.5-0.3-9-1-10.4c-0.7-1.4-2-2.1-3.9-2.1c-1.9,0-3.1,0.7-3.8,2c-0.7,1.3-1,4.4-1,9.4V111.3z"/>
		<path class="st0" d="M590.8,132.8V76.6h9.7v56.2H590.8z"/>
		<path class="st0" d="M636.8,90.6v42.3h-9.6v-4.2c-1,1.8-2.2,3.1-3.7,4c-1.5,0.9-3.2,1.4-5.1,1.4c-3.1,0-5.4-0.9-7-2.6
			c-1.6-1.7-2.4-4.3-2.4-7.6V90.6h9.4v27.6c0,2.8,0.3,4.7,0.9,5.8c0.6,1.1,1.7,1.6,3.2,1.6c1.7,0,2.8-0.6,3.5-1.8
			c0.7-1.2,1-3.3,1-6.2v-27H636.8z"/>
		<path class="st0" d="M655.5,117.2v2.8c0,2.3,0.2,3.7,0.6,4.3c0.4,0.6,1.2,0.9,2.4,0.9c0.3,0,0.5,0,0.6,0c0.2,0,0.3,0,0.4,0v7.6
			c-1.4,0.1-2.5,0.2-3.3,0.3s-1.4,0.1-1.9,0.1c-3.3,0-5.5-0.7-6.8-2c-1.2-1.3-1.8-4-1.8-8.1V97.8h-3.8v-7.3h3.8V79h9.8v11.5h4.1v7.3
			h-4.1V117.2z"/>
		<path class="st0" d="M665.5,85.4v-8.8h9.7v8.8H665.5z M665.5,132.8V90.6h9.7v42.3H665.5z"/>
		<path class="st0" d="M682.4,111.7c0-8.5,1.1-14.4,3.3-17.5c2.2-3.2,6-4.7,11.6-4.7c5.6,0,9.4,1.6,11.6,4.7c2.2,3.2,3.3,9,3.3,17.5
			c0,8.5-1.1,14.4-3.3,17.5c-2.2,3.2-6.1,4.7-11.6,4.7c-5.5,0-9.4-1.6-11.6-4.7C683.5,126.1,682.4,120.2,682.4,111.7z M692.4,111.3
			v1c0,6.5,0.3,10.6,1,12c0.7,1.5,1.9,2.2,3.8,2.2c1.9,0,3.3-0.7,3.9-2.1c0.7-1.4,1-4.9,1-10.7V112v-2.4c0-5.5-0.3-9-1-10.4
			c-0.7-1.4-2-2.1-3.9-2.1c-1.9,0-3.1,0.7-3.8,2c-0.7,1.3-1,4.4-1,9.4V111.3z"/>
		<path class="st0" d="M719.4,132.8V90.6h9.6v4.3c1-1.8,2.3-3.1,3.8-4c1.5-0.9,3.2-1.4,5.1-1.4c3.1,0,5.4,0.9,7,2.6
			c1.6,1.8,2.4,4.3,2.4,7.6v33.2h-9.4v-28.3c0-2.5-0.3-4.2-0.9-5.2c-0.6-1-1.7-1.5-3.2-1.5c-1.6,0-2.8,0.6-3.5,1.9
			c-0.7,1.2-1.1,3.3-1.1,6.3v26.9H719.4z"/>
		<path class="st0" d="M754.2,118.8h8.8v1.2c0,2.4,0.4,4.2,1.1,5.2c0.7,1,2,1.5,3.7,1.5c1.4,0,2.4-0.4,3.2-1.1s1.2-1.7,1.2-3
			c0-1.6-1.6-3.5-4.7-5.6c-0.8-0.5-1.4-0.9-1.9-1.2c-0.1-0.1-0.3-0.2-0.5-0.3c-7.2-4.9-10.7-9.7-10.7-14.5c0-3.8,1.2-6.6,3.5-8.6
			c2.3-2,5.7-3,10.1-3c4.3,0,7.5,1.1,9.6,3.3c2.1,2.2,3.2,5.5,3.2,9.9v0.9h-8.6v-0.9c0-2-0.4-3.5-1.2-4.5c-0.8-0.9-2-1.4-3.7-1.4
			c-1.2,0-2.2,0.3-2.9,1c-0.7,0.7-1.1,1.6-1.1,2.6c0,1,0.3,1.9,1,2.8c0.6,0.8,2.1,2,4.3,3.5c0.5,0.3,1.3,0.8,2.2,1.5
			c7.1,4.7,10.6,9.4,10.6,14.1c0,3.8-1.2,6.6-3.6,8.7c-2.4,2-5.8,3.1-10.2,3.1c-4.7,0-8.1-1.1-10.3-3.3c-2.2-2.2-3.3-5.6-3.3-10.3
			c0-0.2,0-0.4,0-0.8S754.2,119,754.2,118.8z"/>
	</g>
</g>
</svg>
