<svg xmlns="http://www.w3.org/2000/svg" 
  xmlns:xlink="http://www.w3.org/1999/xlink" version="1.1" x="0px" y="0px" viewBox="0 0 512 512" style="enable-background:new 0 0 512 512;" xml:space="preserve">
  <style>
    path {
      fill: #a0aec0;
    }
  </style>
  <g>
    <path d="M456.4,83.3h-29.1c-1.6-24-13.3-42.2-28-42.2s-26.4,18.1-28,42.2h-4.7c-1.6-24-13.3-42.2-28-42.2s-26.4,18.1-28,42.2h-4.7   c-1.6-24-13.3-42.2-28-42.2c-14.8,0-26.4,18.1-28,42.2H245c-1.6-24-13.3-42.2-28-42.2c-14.8,0-26.4,18.1-28,42.2h-4.7   c-1.6-24-13.3-42.2-28-42.2s-26.4,18.1-28,42.2H99.1c-3.1,0-5.6,2.5-5.6,5.6v181.6C67.1,291,50,322.9,50,358.9   c0,61.7,50.2,111.9,111.9,111.9c31.2,0,59.5-12.9,79.8-33.6h214.7c3.1,0,5.6-2.5,5.6-5.6V88.9C462,85.8,459.5,83.3,456.4,83.3z    M399.3,52.3c7.4,0,15.5,12.5,16.9,31h-33.8C383.8,64.8,391.9,52.3,399.3,52.3z M338.6,52.3c7.4,0,15.5,12.5,16.9,31h-33.8   C323.1,64.8,331.1,52.3,338.6,52.3z M277.8,52.3c7.4,0,15.5,12.5,16.9,31h-33.8C262.3,64.8,270.4,52.3,277.8,52.3z M217,52.3   c7.4,0,15.5,12.5,16.9,31h-33.8C201.5,64.8,209.6,52.3,217,52.3z M156.2,52.3c7.4,0,15.5,12.5,16.9,31h-33.8   C140.7,64.8,148.8,52.3,156.2,52.3z M161.9,459.7c-55.6,0-100.8-45.2-100.8-100.8s45.2-100.8,100.8-100.8   c38.6,0,73.3,21.5,90.4,56.2c6.9,13.9,10.4,28.9,10.4,44.5C262.7,414.5,217.5,459.7,161.9,459.7z M234.2,273.4h24.2v29.3   C251.9,291.5,243.8,281.5,234.2,273.4z M450.9,426H251.3c14.1-18.7,22.6-41.9,22.6-67.1c0-13.9-2.6-27.3-7.5-40   c1.9-0.9,3.2-2.8,3.2-5v-46.1c0-3.1-2.5-5.6-5.6-5.6h-45.8c-16.7-9.7-35.9-15.2-56.3-15.2c-20.9,0-40.4,5.9-57.2,15.9v-96.3h346.1   L450.9,426L450.9,426z M450.9,155.4H104.7V94.5h68.4c-1.4,18.5-9.5,31-16.9,31c-3.1,0-5.6,2.5-5.6,5.6c0,3.1,2.5,5.6,5.6,5.6   c14.8,0,26.4-18.1,28-42.2h49.7c-1.4,18.5-9.5,31-16.9,31c-3.1,0-5.6,2.5-5.6,5.6s2.5,5.6,5.6,5.6c14.8,0,26.4-18.1,28-42.2h49.7   c-1.4,18.5-9.5,31-16.9,31c-3.1,0-5.6,2.5-5.6,5.6s2.5,5.6,5.6,5.6c14.8,0,26.4-18.1,28-42.2h49.7c-1.4,18.5-9.5,31-16.9,31   c-3.1,0-5.6,2.5-5.6,5.6c0,3.1,2.5,5.6,5.6,5.6c14.8,0,26.4-18.1,28-42.2h49.7c-1.4,18.5-9.5,31-16.9,31c-3.1,0-5.6,2.5-5.6,5.6   c0,3.1,2.5,5.6,5.6,5.6c14.8,0,26.4-18.1,28-42.2h23.5L450.9,155.4L450.9,155.4z"/>
    <path d="M129,242.5h53.9c3.1,0,5.6-2.5,5.6-5.6v-46.1c0-3.1-2.5-5.6-5.6-5.6H129c-3.1,0-5.6,2.5-5.6,5.6v46.1   C123.5,240,126,242.5,129,242.5z M134.6,196.4h42.8v34.9h-42.8V196.4z"/>
    <path d="M210.1,242.5H264c3.1,0,5.6-2.5,5.6-5.6v-46.1c0-3.1-2.5-5.6-5.6-5.6h-53.9c-3.1,0-5.6,2.5-5.6,5.6v46.1   C204.5,240,207,242.5,210.1,242.5z M215.6,196.4h42.8v34.9h-42.8L215.6,196.4L215.6,196.4z"/>
    <path d="M291.6,243h53.9c3.1,0,5.6-2.5,5.6-5.6v-46.1c0-3.1-2.5-5.6-5.6-5.6h-53.9c-3.1,0-5.6,2.5-5.6,5.6v46.1   C286,240.5,288.5,243,291.6,243z M297.2,196.9h42.8v34.9h-42.8V196.9z"/>
    <path d="M372.6,243h53.9c3.1,0,5.6-2.5,5.6-5.6v-46.1c0-3.1-2.5-5.6-5.6-5.6h-53.9c-3.1,0-5.6,2.5-5.6,5.6v46.1   C367,240.5,369.5,243,372.6,243z M378.2,196.9H421v34.9h-42.8V196.9z"/>
    <path d="M291.6,319.9h53.9c3.1,0,5.6-2.5,5.6-5.6v-46.1c0-3.1-2.5-5.6-5.6-5.6h-53.9c-3.1,0-5.6,2.5-5.6,5.6v46.1   C286,317.4,288.5,319.9,291.6,319.9z M297.2,273.9h42.8v34.9h-42.8V273.9z"/>
    <path d="M372.6,319.9h53.9c3.1,0,5.6-2.5,5.6-5.6v-46.1c0-3.1-2.5-5.6-5.6-5.6h-53.9c-3.1,0-5.6,2.5-5.6,5.6v46.1   C367,317.4,369.5,319.9,372.6,319.9z M378.2,273.9H421v34.9h-42.8V273.9z"/>
    <path d="M291.6,396.9h53.9c3.1,0,5.6-2.5,5.6-5.6v-46.1c0-3.1-2.5-5.6-5.6-5.6h-53.9c-3.1,0-5.6,2.5-5.6,5.6v46.1   C286,394.4,288.5,396.9,291.6,396.9z M297.2,350.8h42.8v34.9h-42.8V350.8z"/>
    <path d="M372.6,396.9h53.9c3.1,0,5.6-2.5,5.6-5.6v-46.1c0-3.1-2.5-5.6-5.6-5.6h-53.9c-3.1,0-5.6,2.5-5.6,5.6v46.1   C367,394.4,369.5,396.9,372.6,396.9z M378.2,350.8H421v34.9h-42.8V350.8z"/>
    <path d="M163.3,286.5c3.1,0,5.6-2.5,5.6-5.6v-13.6c0-3.1-2.5-5.6-5.6-5.6c-3.1,0-5.6,2.5-5.6,5.6v13.6   C157.7,284,160.2,286.5,163.3,286.5z"/>
    <path d="M122.2,276.1c-1.5-2.7-4.9-3.6-7.6-2c-2.7,1.5-3.6,5-2,7.6l6.8,11.8c1,1.8,2.9,2.8,4.8,2.8c0.9,0,1.9-0.2,2.8-0.7   c2.7-1.5,3.6-5,2-7.6L122.2,276.1z"/>
    <path d="M97.9,313.9l-11.8-6.8c-2.7-1.5-6.1-0.6-7.6,2c-1.5,2.7-0.6,6.1,2,7.6l11.8,6.8c0.9,0.5,1.8,0.7,2.8,0.7   c1.9,0,3.8-1,4.8-2.8C101.4,318.8,100.5,315.4,97.9,313.9z"/>
    <path d="M89.5,357.5c0-3.1-2.5-5.6-5.6-5.6H70.3c-3.1,0-5.6,2.5-5.6,5.6c0,3.1,2.5,5.6,5.6,5.6h13.6   C87,363.1,89.5,360.6,89.5,357.5z"/>
    <path d="M90.9,391.9l-11.8,6.8c-2.7,1.5-3.6,5-2,7.6c1,1.8,2.9,2.8,4.8,2.8c0.9,0,1.9-0.2,2.8-0.7l11.8-6.8c2.7-1.5,3.6-5,2-7.6   C97,391.3,93.6,390.3,90.9,391.9z"/>
    <path d="M124.5,420.9c-2.7-1.5-6.1-0.6-7.6,2l-6.8,11.8c-1.5,2.7-0.6,6.1,2,7.6c0.9,0.5,1.8,0.7,2.8,0.7c1.9,0,3.8-1,4.8-2.8   l6.8-11.8C128.1,425.9,127.2,422.5,124.5,420.9z"/>
    <path d="M160.5,431.3c-3.1,0-5.6,2.5-5.6,5.6v13.6c0,3.1,2.5,5.6,5.6,5.6s5.6-2.5,5.6-5.6v-13.6   C166.1,433.8,163.6,431.3,160.5,431.3z"/>
    <path d="M204.5,424.3c-1.5-2.7-4.9-3.6-7.6-2c-2.7,1.5-3.6,5-2,7.6l6.8,11.8c1,1.8,2.9,2.8,4.8,2.8c0.9,0,1.9-0.2,2.8-0.7   c2.7-1.5,3.6-5,2-7.6L204.5,424.3z"/>
    <path d="M243.3,401l-11.8-6.8c-2.7-1.5-6.1-0.6-7.6,2c-1.5,2.7-0.6,6.1,2,7.6l11.8,6.8c0.9,0.5,1.8,0.7,2.8,0.7   c1.9,0,3.8-1,4.8-2.8C246.9,406,246,402.6,243.3,401z"/>
    <path d="M253.5,354.7h-13.6c-3.1,0-5.6,2.5-5.6,5.6s2.5,5.6,5.6,5.6h13.6c3.1,0,5.6-2.5,5.6-5.6S256.6,354.7,253.5,354.7z"/>
    <path d="M230.1,326.7c0.9,0,1.9-0.2,2.8-0.7l11.8-6.8c2.7-1.5,3.6-5,2-7.6c-1.5-2.7-4.9-3.6-7.6-2l-11.8,6.8c-2.7,1.5-3.6,5-2,7.6   C226.3,325.7,228.2,326.7,230.1,326.7z"/>
    <path d="M211.7,275.5c-2.7-1.5-6.1-0.6-7.6,2l-6.8,11.8c-1.5,2.7-0.6,6.1,2,7.6c0.9,0.5,1.8,0.7,2.8,0.7c1.9,0,3.8-1,4.8-2.8   l6.8-11.8C215.3,280.4,214.4,277,211.7,275.5z"/>
    <path d="M192.3,381.2c-3.1-2.8-5.9-5.8-8.9-8.7l-13-13c0-0.2,0.1-0.4,0.1-0.6c0-2.6-1.2-4.9-3.1-6.5v-15.3   c-0.1-3.6,0.3-7.3-0.3-10.9c-1.6-3.6-3.2-7.3-5.3-10.9c-2.2,3.6-3.7,7.3-5.3,10.9c-0.5,3.6-0.1,7.3-0.3,10.9v15.3   c-1.8,1.6-3.1,3.9-3.1,6.5c0,4.8,3.9,8.7,8.7,8.7c0.2,0,0.4-0.1,0.6-0.1l13,13c2.9,3,5.9,5.8,8.7,8.9c4,1.8,8.3,3.4,12.8,4.8   C195.7,389.5,194.1,385.3,192.3,381.2z"/>
  </g>
</svg>