<svg xmlns="http://www.w3.org/2000/svg" 
  xmlns:xlink="http://www.w3.org/1999/xlink" viewBox="0 0 100 100" version="1.1" x="0px" y="0px">
  <g stroke="none" stroke-width="1" fill="none" fill-rule="evenodd">
    <g fill="#2d3748" transform="rotate(-225 50 50)">
      <path d="M82.4287476,82.4712695 C74.2054599,90.6784961 63.4164188,95.3917773 51.8671037,95.8712695 L51.8671037,88.0374805 C51.8671037,86.9589648 50.9909785,86.0843555 49.9101566,86.0843555 C48.8295303,86.0843555 47.9532094,86.9589648 47.9532094,88.0374805 L47.9532094,95.8712695 C36.4038943,95.3917773 25.6148532,90.6784961 17.3915656,82.4712695 C9.16651663,74.2622852 4.44342466,63.4908008 3.96514677,51.960918 L11.806047,51.960918 C12.8868689,51.960918 13.7629941,51.0865039 13.7629941,50.007793 C13.7629941,48.9292773 12.8868689,48.054668 11.806047,48.054668 L3.96573386,48.054668 C4.44812133,36.5312305 9.17043053,25.7661914 17.3915656,17.5611133 C25.6148532,9.35408203 36.4038943,4.64060547 47.9532094,4.16130859 L47.9532094,11.9783008 C47.9532094,13.0570117 48.8295303,13.9314258 49.9101566,13.9314258 C50.9909785,13.9314258 51.8671037,13.0570117 51.8671037,11.9783008 L51.8671037,4.16130859 C63.4164188,4.64060547 74.2054599,9.35408203 82.4287476,17.5611133 C90.6498826,25.7661914 95.3723875,36.5312305 95.8545793,48.054668 L88.0142661,48.054668 C86.9336399,48.054668 86.057319,48.9292773 86.057319,50.007793 C86.057319,51.0865039 86.9336399,51.960918 88.0142661,51.960918 L95.8551663,51.960918 C95.3768885,63.4908008 90.6537965,74.2622852 82.4287476,82.4712695 M99.8203327,50.007793 C99.8203327,49.9394336 99.8168102,49.8716602 99.8097652,49.8048633 C99.7549706,36.5806445 94.5716047,24.1560352 85.1964579,14.7990039 C75.8330528,5.45388672 63.4036986,0.282207031 50.1723875,0.214824219 C50.0862818,0.203300781 49.9993933,0.195292969 49.9101566,0.195292969 C49.8209198,0.195292969 49.7340313,0.203300781 49.6479256,0.214824219 C36.4166145,0.282207031 23.9872603,5.45388672 14.6240509,14.7990039 C5.24870841,24.1560352 0.0653424658,36.5806445 0.0105479452,49.8048633 C0.00369863014,49.8716602 -1.95694716e-05,49.9394336 -1.95694716e-05,50.007793 C-1.95694716e-05,50.075957 0.00369863014,50.1431445 0.0103522505,50.2093555 C0.0606457926,63.4404102 5.24440313,75.8722461 14.6240509,85.2335742 C24.0492955,94.6404102 36.5808023,99.8208789 49.9101566,99.8208789 C63.2395108,99.8208789 75.7710176,94.6404102 85.1964579,85.2335742 C94.57591,75.8722461 99.759863,63.4404102 99.8099609,50.2093555 C99.8168102,50.1431445 99.8203327,50.075957 99.8203327,50.007793 M66.211135,31.6027539 L26.2962622,47.3908398 C25.5449902,47.6881055 25.0541879,48.4158398 25.0604501,49.2222852 C25.066908,50.0287305 25.5694521,50.748457 26.3256164,51.0336133 L42.9853033,57.3185742 L49.2823679,73.945918 C49.5682779,74.7004102 50.2894129,75.2019727 51.0974364,75.208418 C51.1027202,75.208418 51.1078082,75.208418 51.1132877,75.208418 C51.9148532,75.208418 52.6365753,74.7199414 52.9324658,73.9750195 L68.7514481,34.1381055 C69.0391194,33.4138867 68.8678865,32.5883008 68.3160274,32.0373242 C67.7641683,31.486543 66.9373581,31.3156445 66.211135,31.6027539"/>
    </g>
  </g>
</svg>