<svg xmlns="http://www.w3.org/2000/svg" viewBox="0 0 847 850" fill-rule="evenodd" clip-rule="evenodd" shape-rendering="geometricPrecision" text-rendering="geometricPrecision" image-rendering="optimizeQuality">
  <defs>
    <style/>
  </defs>
  <path fill="#2d3748" class="fil0" d="M423 26C51 26-108 484 161 721c143 126 355 132 505 16C961 509 807 26 423 26zm-81 404c22 0 22-33 0-33-21 0-21 33 0 33zm96-205c-3-5-9-9-15-9s-11 4-14 9l-54 123c-9 18 20 31 28 12l40-90 133 298-127-49c-4-1-8-1-11 0l-128 49 40-89c8-18-20-31-29-12l-54 122c-6 13 7 26 19 21l157-60 157 60c2 1 4 1 6 1 11 0 18-11 14-22L438 225zm1 564v-74c0-20-31-20-31 0v74c-88-4-169-39-230-94-70-64-116-155-120-256h74c20 0 20-31 0-31H58C66 218 218 66 408 58v74c0 20 31 20 31 0V58c189 8 342 160 350 350h-74c-20 0-20 31 0 31h74c-5 111-59 209-141 273-59 46-131 74-209 77z"/>
</svg>