<svg xmlns="http://www.w3.org/2000/svg" 
  xmlns:xlink="http://www.w3.org/1999/xlink" version="1.1" x="0px" y="0px" viewBox="0 0 100 100" enable-background="new 0 0 100 100" xml:space="preserve">
  <path fill="#2d3748" d="M79.698,79.698c-16.376,16.376-43.021,16.376-59.397,0s-16.376-43.021,0-59.397s43.021-16.376,59.397,0  S96.074,63.323,79.698,79.698z M23.13,23.13c-14.816,14.816-14.816,38.924,0,53.74s38.924,14.816,53.74,0s14.816-38.924,0-53.74  S37.946,8.314,23.13,23.13z"/>
  <path fill="#2d3748" d="M65.38,69.976c-0.107,0.107-0.23,0.204-0.363,0.287c-0.788,0.487-1.809,0.369-2.465-0.287L49.823,57.248  L37.095,69.976c-0.656,0.656-1.677,0.774-2.465,0.287c-0.789-0.488-1.14-1.454-0.846-2.334l14.142-42.426  c0.273-0.819,1.038-1.368,1.898-1.368c0.86,0,1.626,0.551,1.898,1.368l14.142,42.426C66.106,68.66,65.906,69.449,65.38,69.976z   M40.257,61.157l8.152-8.152c0.781-0.781,2.048-0.781,2.828,0l8.152,8.152L49.823,32.46L40.257,61.157z"/>
</svg>