<svg height="512pt" viewBox="0 -18 512.00021 512" width="512pt" xmlns="http://www.w3.org/2000/svg"><path d="m502.578125 364.800781-180.878906-326.101562c-13.5-24-38.101563-38.699219-65.699219-38.699219s-52.199219 14.699219-65.699219 38.699219l-180.878906 326.101562c-12.902344 23.398438-12.601563 51.300781 1.199219 74.398438 13.5 23.101562 37.800781 36.902343 64.5 36.902343h361.757812c26.699219 0 51-13.800781 64.5-36.902343 13.800782-23.097657 14.101563-51 1.199219-74.398438zm0 0" fill="#fdbf00"/><path d="m501.378906 439.199219c-13.5 23.101562-37.796875 36.902343-64.5 36.902343h-180.878906v-476.101562c27.597656 0 52.199219 14.699219 65.699219 38.699219l180.878906 326.101562c12.902344 23.398438 12.601563 51.300781-1.199219 74.398438zm0 0" fill="#ff9f00"/><path d="m211 86.101562v225h90v-225zm0 0" fill="#5a5a5a"/><path d="m256 341.101562c-24.902344 0-45 20.097657-45 45 0 24.898438 20.097656 45 45 45s45-20.101562 45-45c0-24.902343-20.097656-45-45-45zm0 0" fill="#5a5a5a"/><g fill="#444"><path d="m301 386.101562c0 24.898438-20.097656 45-45 45v-90c24.902344 0 45 20.097657 45 45zm0 0"/><path d="m256 86.101562h45v225h-45zm0 0"/></g></svg>