<svg xmlns="http://www.w3.org/2000/svg" 
  xmlns:xlink="http://www.w3.org/1999/xlink" height="100px" width="100px" version="1.1" x="0px" y="0px" viewBox="0 0 78.416 78.5" enable-background="new 0 0 78.416 78.5" xml:space="preserve">
  <g>
    <g>
      <path fill="#000000" d="M39.208,0C17.554,0,0,17.554,0,39.208s17.554,39.208,39.208,39.208c21.654,0,39.208-17.554,39.208-39.208    S60.862,0,39.208,0z M53.492,41.598L34.975,60.111c-1.314,1.32-3.455,1.32-4.775,0c-1.317-1.318-1.317-3.457,0-4.777    l16.128-16.125L30.2,23.081c-1.32-1.319-1.317-3.458,0-4.777c0.659-0.66,1.525-0.99,2.39-0.99c0.865,0,1.731,0.33,2.391,0.99    l18.511,18.512C54.811,38.136,54.811,40.278,53.492,41.598z"/>
    </g>
  </g>
</svg>