<svg xmlns="http://www.w3.org/2000/svg" viewBox="0 0 66 58" x="0px" y="0px">
  <path fill="#d69e2e" fill-rule="evenodd" d="M468.163051,429.3842 C468.054965,429.911552 468,430.451931 468,431 C468,435.418278 471.581722,439 476,439 C476.548069,439 477.088448,438.945035 477.6158,438.836949 C478.318853,438.692852 478.940317,439.314316 478.79622,440.017369 C477.849888,444.634549 473.770653,448 469,448 C463.477153,448 459,443.522847 459,438 C459,433.229347 462.365451,429.150112 466.982631,428.20378 C467.685684,428.059683 468.307148,428.681147 468.163051,429.3842 Z M461,438 C461,442.418278 464.581722,446 469,446 C472.323811,446 475.22882,443.957155 476.423026,440.991198 C476.282414,440.99706 476.141383,441 476,441 C470.477153,441 466,436.522847 466,431 C466,430.858617 466.00294,430.717586 466.008802,430.576974 C463.042845,431.77118 461,434.676189 461,438 Z M460,467 C459.447715,467 459,466.552285 459,466 C459,465.447715 459.447715,465 460,465 L482,465 C482.552285,465 483,465.447715 483,466 C483,466.552285 482.552285,467 482,467 L460,467 Z M442,467 C441.447715,467 441,466.552285 441,466 C441,465.447715 441.447715,465 442,465 L452,465 C452.552285,465 453,465.447715 453,466 C453,466.552285 452.552285,467 452,467 L442,467 Z M451.5,450 C450.671573,450 450,449.328427 450,448.5 C450,447.671573 450.671573,447 451.5,447 C452.328427,447 453,447.671573 453,448.5 C453,449.328427 452.328427,450 451.5,450 Z M438.5,429 C437.671573,429 437,428.328427 437,427.5 C437,426.671573 437.671573,426 438.5,426 C439.328427,426 440,426.671573 440,427.5 C440,428.328427 439.328427,429 438.5,429 Z M434.5,440 C433.671573,440 433,439.328427 433,438.5 C433,437.671573 433.671573,437 434.5,437 C435.328427,437 436,437.671573 436,438.5 C436,439.328427 435.328427,440 434.5,440 Z M424.5,435 C423.671573,435 423,434.328427 423,433.5 C423,432.671573 423.671573,432 424.5,432 C425.328427,432 426,432.671573 426,433.5 C426,434.328427 425.328427,435 424.5,435 Z M425.5,447 C424.671573,447 424,446.328427 424,445.5 C424,444.671573 424.671573,444 425.5,444 C426.328427,444 427,444.671573 427,445.5 C427,446.328427 426.328427,447 425.5,447 Z M438.5,451 C437.671573,451 437,450.328427 437,449.5 C437,448.671573 437.671573,448 438.5,448 C439.328427,448 440,448.671573 440,449.5 C440,450.328427 439.328427,451 438.5,451 Z M447.5,437 C446.671573,437 446,436.328427 446,435.5 C446,434.671573 446.671573,434 447.5,434 C448.328427,434 449,434.671573 449,435.5 C449,436.328427 448.328427,437 447.5,437 Z M440,475 C439.447715,475 439,474.552285 439,474 C439,473.447715 439.447715,473 440,473 L464,473 C464.552285,473 465,473.447715 465,474 C465,474.552285 464.552285,475 464,475 L440,475 Z M472,475 C471.447715,475 471,474.552285 471,474 C471,473.447715 471.447715,473 472,473 L478,473 C478.552285,473 479,473.447715 479,474 C479,474.552285 478.552285,475 478,475 L472,475 Z M418,463 C417.447715,463 417,462.552285 417,462 C417,461.447715 417.447715,461 418,461 L421,461 C423.142174,461 424.21438,461.026474 425.539254,461.152653 C429.665932,461.54567 432.526565,462.817062 433.894427,465.552786 C434.625646,467.015225 434.564597,468.434621 433.944497,470.21741 C433.81478,470.590346 433.711582,470.854392 433.433415,471.543187 C432.265991,474.43395 432.21753,475.614522 433.747409,477.335636 C435.007335,478.753053 437.385124,479.763613 440.54824,480.369877 C443.354313,480.907708 446.295707,481.0626 448.69497,481.008518 C448.825963,481.005566 448.915025,481.002673 448.958369,481.000867 C449.510175,480.977875 449.976141,481.406563 449.999133,481.958369 C450.022125,482.510175 449.593437,482.976141 449.041631,482.999133 C448.985802,483.001459 448.88403,483.004765 448.740041,483.008011 C446.211641,483.065003 443.141555,482.903334 440.17176,482.334123 C436.614876,481.652387 433.872665,480.486947 432.252591,478.664364 C430.078093,476.218055 430.156112,474.317432 431.578931,470.794261 C431.844237,470.137312 431.940475,469.891076 432.055503,469.560368 C432.515158,468.238862 432.553672,467.343411 432.105573,466.447214 C431.124229,464.484525 428.859321,463.477899 425.349635,463.143644 C424.107842,463.025378 423.080049,463 421,463 L418,463 Z M457,483 C456.447715,483 456,482.552285 456,482 C456,481.447715 456.447715,481 457,481 L474,481 C474.552285,481 475,481.447715 475,482 C475,482.552285 474.552285,483 474,483 L457,483 Z" transform="translate(-417 -426)"/>
</svg>