<svg xmlns="http://www.w3.org/2000/svg" 
  xmlns:xlink="http://www.w3.org/1999/xlink" version="1.1" x="0px" y="0px" viewBox="5 5 54 54" enable-background="new 0 0 64 64" xml:space="preserve">
  <g>
    <g>
      <path fill="#d69e2e" d="M32,15c0.552,0,1-0.448,1-1V8c0-0.552-0.448-1-1-1s-1,0.448-1,1v6C31,14.552,31.448,15,32,15z"/>
      <path fill="#d69e2e" d="M56,31h-6c-0.553,0-1,0.448-1,1s0.447,1,1,1h6c0.553,0,1-0.448,1-1S56.553,31,56,31z"/>
      <path fill="#d69e2e" d="M15,32c0-0.552-0.448-1-1-1H8c-0.552,0-1,0.448-1,1s0.448,1,1,1h6C14.552,33,15,32.552,15,32z"/>
      <path fill="#d69e2e" d="M44.728,20.272c0.256,0,0.512-0.098,0.707-0.293l4.243-4.243c0.391-0.391,0.391-1.023,0-1.414s-1.023-0.391-1.414,0    l-4.243,4.243c-0.391,0.391-0.391,1.023,0,1.414C44.216,20.174,44.472,20.272,44.728,20.272z"/>
      <path fill="#d69e2e" d="M18.565,19.979c0.195,0.195,0.451,0.293,0.707,0.293s0.512-0.098,0.707-0.293c0.391-0.391,0.391-1.023,0-1.414    l-4.243-4.243c-0.391-0.391-1.023-0.391-1.414,0s-0.391,1.023,0,1.414L18.565,19.979z"/>
      <path fill="#d69e2e" d="M54,39H40.478C42.101,37.052,43,34.604,43,32c0-6.065-4.935-11-11-11s-11,4.935-11,11c0,2.604,0.899,5.051,2.522,7H10    c-0.552,0-1,0.447-1,1s0.448,1,1,1h44c0.553,0,1-0.447,1-1S54.553,39,54,39z M23.001,32c0-4.962,4.037-9,9-9s9,4.037,9,9    c0,2.75-1.233,5.277-3.38,7H26.382C24.235,37.278,23.001,34.75,23.001,32z"/>
      <path fill="#d69e2e" d="M32.707,49.293c-0.391-0.391-1.023-0.391-1.414,0l-6,6c-0.391,0.391-0.391,1.023,0,1.414s1.023,0.391,1.414,0L32,51.414    l5.293,5.293C37.488,56.902,37.744,57,38,57s0.512-0.098,0.707-0.293c0.391-0.391,0.391-1.023,0-1.414L32.707,49.293z"/>
    </g>
  </g>
</svg>