<svg xmlns="http://www.w3.org/2000/svg" data-name="Слой 1" viewBox="0 28 100 45" x="0px" y="0px">
  <title>волна-01-01-01-01-01-01-01-01-01-01-01</title>
  <g>
    <path stroke="#4299e1" fill="#4299e1" d="M4.67332,47.49883a1.48555,1.48555,0,0,1-.69325-1.91567A23.39553,23.39553,0,0,1,10.28095,33.755c1.53265-1.525,3.11763-1.57412,4.629.005a16.75011,16.75011,0,0,1,3.80324,6.90861,24.83832,24.83832,0,0,0,3.26191,7.13312,4.16635,4.16635,0,0,0,.48142.584c0.88194,0.871,1.35174.76712,1.70929-.42129A19.19481,19.19481,0,0,1,27.20271,42.194a3.0254,3.0254,0,0,1,4.9539-.31279c0.83244,0.89767,1.45942,1.98245,2.2258,2.94568,0.89734,1.1279,1.80439,2.25382,2.78759,3.30548a1.76091,1.76091,0,0,0,2.10392.31161,12.08986,12.08986,0,0,0,5.12054-4.37411c1.57514-2.148,3.183-4.27226,4.7354-6.43643,0.92073-1.28364,1.74115-2.63887,2.64622-3.93429a26.09533,26.09533,0,0,1,1.8572-2.3937c0.71436-.8042,1.43216-0.60546,1.68163.43087a28.49324,28.49324,0,0,0,3.22351,8.26278c1.17189,1.9318,1.92851,4.11074,2.97009,6.128a4.13929,4.13929,0,0,0,3.78562,2.13321,2.99,2.99,0,0,0,1.79231-.87742c1.30105-1.166,2.49245-2.45333,3.75875-3.65956a4.0908,4.0908,0,0,1,3.22-1.33122,3.61077,3.61077,0,0,1,1.91992.97633c1.90823,1.79486,3.668,3.75139,5.62076,5.49334a3.37643,3.37643,0,0,0,3.34182.536,6.6312,6.6312,0,0,1,4.99-.19031,2.07123,2.07123,0,0,0,1.243-.26371c0.54307-.20319,1.05815-0.48122,1.77354-0.815a3.41169,3.41169,0,0,1-.1886.74375,3.335,3.335,0,0,1-3.70285,1.42892,5.08,5.08,0,0,0-3.24414.01536,5.48137,5.48137,0,0,1-6.14116-1.55949c-1.3566-1.53975-2.89485-2.919-4.25906-4.45266-0.95131-1.06943-2.12518-.94439-3.47077.04319A21.08075,21.08075,0,0,0,68.499,47.61618c-2.756,3.20709-6.467,1.66245-7.91738-.98037-2.08086-3.7915-3.75139-7.81047-5.53989-11.75825a19.982,19.982,0,0,1-.78753-2.90367c-1.31128,1.8521-2.42147,3.46476-3.57759,5.04385-2.42794,3.3163-4.80442,6.675-7.35916,9.89152a6.8314,6.8314,0,0,1-4.193,2.6172,3.72085,3.72085,0,0,1-2.12262-.29511c-2.00071-.99554-2.99349-2.92913-4.1225-4.7304a11.0431,11.0431,0,0,0-1.543-1.92531,2.2263,2.2263,0,0,0-3.603.69438c-0.86376,1.46423-1.55781,3.02889-2.31829,4.55351-0.169.33872-.28764,0.70264-0.458,1.0406-0.74526,1.479-2.17661,1.60559-3.26336.31343a19.84776,19.84776,0,0,1-3.8274-7.7742,17.437,17.437,0,0,0-3.10959-6.25566c-0.97-1.23714-2.72217-1.914-4.22781-.26946A23.28554,23.28554,0,0,0,5.17264,45.09512c-0.11637.45659-.10027,0.94542-0.18614,1.41184A8.66094,8.66094,0,0,1,4.67332,47.49883Z"/>
    <path stroke="#4299e1" fill="#4299e1" d="M97.04908,55.97354a3.53236,3.53236,0,0,1-.641.84966c-1.62361.91266-3.24866,1.82605-4.90857,2.66971a3.98346,3.98346,0,0,1-3.30677.225c-1.93045-.75292-3.62339-0.03751-5.40755.5787a8.60375,8.60375,0,0,1-3.74085.57165,6.966,6.966,0,0,1-2.83816-1.576c-1.06376-.78135-2.02529-1.703-3.02192-2.57439-1.33941-1.17109-4.57212-.69184-5.92823.52252-1.57395,1.40943-2.92215,1.34346-4.383-.121-1.35089-1.35426-1.371-1.30586-2.56152-.35351-0.53741.4299-1.15007,0.76441-1.71565,1.16067-1.0628.74462-1.82564,0.60779-2.365-.58428-0.45337-1.002-.70219-2.09444-1.11353-3.11792a28.76481,28.76481,0,0,1-1.57433-7.20388,17.96152,17.96152,0,0,0-.88549-3.28588c-0.32282-.97887-0.8206-1.10179-1.45346-0.29648a18.0327,18.0327,0,0,0-2.19827,3.30526c-1.00106,2.10842-1.73022,4.34582-2.72866,6.45565a21.80757,21.80757,0,0,1-2.35125,3.77026c-0.94074,1.2439-2.05315,1.196-3.12775.05135-1.69808-1.80874-3.12106-1.85493-4.9991-.132-0.56116.51479-1.05016,1.10825-1.61085,1.62361a1.8104,1.8104,0,0,1-2.90058-.10337c-1.25118-1.58289-2.37425-3.27-3.5-4.94767-0.51109-.76175-0.71511-0.864-1.35675-0.19326-1.29065,1.34927-2.51519,2.76251-3.82164,4.09581-1.31551,1.34258-2.67707,2.59216-4.76939,2.62486a3.44987,3.44987,0,0,1-2.76486-1.37137A11.3197,11.3197,0,0,1,12.635,53.13523a3.26984,3.26984,0,0,0-2.48152-2.45674,1.23788,1.23788,0,0,0-1.02789.20073,8.98319,8.98319,0,0,0-2.66474,3.73523,2.21642,2.21642,0,0,1-.73671.63851,1.85639,1.85639,0,0,1-.29565-0.92873,23.29879,23.29879,0,0,1,1.901-3.033,10.22957,10.22957,0,0,1,1.912-1.80323,1.22454,1.22454,0,0,1,1.054-.09516,5.38715,5.38715,0,0,1,3.378,3.58311,15.51961,15.51961,0,0,0,1.1489,3.212,9.19948,9.19948,0,0,0,1.70845,2.2478c0.67627,0.68047,2.97993.38413,3.882-.49336,1.18026-1.14817,2.26344-2.39542,3.4118-3.57731,0.79234-.81546,1.59774-1.62216,2.44583-2.37834,0.88161-.786,1.44672-0.70257,2.08652.28679,0.619,0.95721,1.12839,1.98787,1.77967,2.92083a22.14358,22.14358,0,0,0,1.98833,2.40388c0.49086,0.526.95317,0.45711,1.51408-.1107a17.2775,17.2775,0,0,1,2.90093-2.431c1.80542-1.15788,3.20108-.89276,4.64809.66754,1.19137,1.28472,1.5102,1.212,2.53154-.22929,1.80276-2.54387,2.714-5.49707,3.92746-8.30983a12.1155,12.1155,0,0,1,3.25885-4.82809c1.30108-1.06584,2.278-.80808,2.76283.83075a24.42151,24.42151,0,0,1,1.08856,4.89187,30.00611,30.00611,0,0,0,2.14936,7.71379c0.16551,0.462.39841,0.89991,0.61919,1.39118,1.0305-.68668,1.937-1.30834,2.86141-1.90223a1.84137,1.84137,0,0,1,2.74046.3698c1.35053,1.65215,2.32326,1.79458,3.92524.3852,1.77529-1.56189,5.87356-1.47061,7.70993.39261,0.84075,0.853,1.843,1.54443,2.72535,2.35963a3.67991,3.67991,0,0,0,3.947.82855,26.55613,26.55613,0,0,0,2.49058-.92169,4.62666,4.62666,0,0,1,3.67808-.39111,5.67058,5.67058,0,0,0,5.30893-.7705,25.17576,25.17576,0,0,1,3.17384-1.44256A4.54947,4.54947,0,0,1,97.04908,55.97354Z"/>
    <path stroke="#4299e1" fill="#4299e1" d="M95.91457,67.83591a5.02888,5.02888,0,0,1-2.69246,2.48219,1.75106,1.75106,0,0,1-1.36085-.14683,5.17863,5.17863,0,0,0-3.70136-.443,5.66966,5.66966,0,0,1-4.893-1.14936,1.74429,1.74429,0,0,0-2.60345.13116c-2.276,2.24049-4.57614,1.17013-6.57655-.15289a3.83131,3.83131,0,0,0-4.46329-.21042,4.08025,4.08025,0,0,1-5.39587-.99269,3.20037,3.20037,0,0,0-3.1596-.914,11.153,11.153,0,0,0-5.21051,2.061c-2.01424,1.42161-4.00025.95307-6.00815-.02182-1.05259-.51109-2.13291-0.96686-3.21088-1.4236a5.29765,5.29765,0,0,0-4.58954.29638c-1.19359.58513-2.38674,1.17151-3.58909,1.73827a3.0725,3.0725,0,0,1-2.84128-.05933,10.32561,10.32561,0,0,1-3.15537-2.032c-1.54783-1.85391-3.45814-1.91975-5.52414-1.68555a14.32447,14.32447,0,0,0-5.31331,1.91376c-1.32882.73635-2.688,1.41831-4.0388,2.11449a1.67627,1.67627,0,0,1-2.15986-.45693A17.76571,17.76571,0,0,0,10.73364,65.265a3.01668,3.01668,0,0,0-2.80769-.24664A6.53148,6.53148,0,0,0,3.9667,68.74536a2.03931,2.03931,0,0,1-.80278.5502A2.23912,2.23912,0,0,1,2.98855,68.22a7.9948,7.9948,0,0,1,6.07408-4.52654,4.77189,4.77189,0,0,1,2.95768,1.01665,36.17361,36.17361,0,0,1,4.078,3.24971,1.071,1.071,0,0,0,1.398.19721c2.59482-1.21452,5.1589-2.52869,7.845-3.50045a14.05268,14.05268,0,0,1,4.552-.50124c1.32059-.01406,2.18832,1.01569,3.12943,1.81359a18.90515,18.90515,0,0,0,2.10926,1.6077,3.85694,3.85694,0,0,0,4.28392-.08073A30.75441,30.75441,0,0,1,43.6281,65.6228a4.97476,4.97476,0,0,1,3.773.49206c1.5178,0.63081,2.99108,1.371,4.51867,1.97527a3.31055,3.31055,0,0,0,2.93051-.26522c1.04436-.59524,2.065-1.23233,3.11336-1.82015a3.71623,3.71623,0,0,1,1.14857-.43792,23.32268,23.32268,0,0,1,3.09141-.40313,3.39767,3.39767,0,0,1,1.6498.42635A6.83474,6.83474,0,0,1,65.2367,66.7479a2.919,2.919,0,0,0,3.78456.67161c0.57809-.25466,1.17433-0.47929,1.72276-0.78786,1.24858-.70252,2.23125-0.2155,3.31709.47913a13.70909,13.70909,0,0,0,3.56729,1.66035c0.5734,0.16334,1.34783-.357,2.0229-0.59087a2.22487,2.22487,0,0,0,.36354-0.3031c2.04123-1.32895,2.24742-1.68338,4.08782-.03076a4.21641,4.21641,0,0,0,4.10835.72789,4.99076,4.99076,0,0,1,3.5919.40139,1.90513,1.90513,0,0,0,2.40966-.2906,13.88038,13.88038,0,0,1,1.50711-1.06964Z"/>
    <path stroke="#4299e1" fill="#4299e1" d="M36.30061,40.77085a22.48576,22.48576,0,0,1,3.45694-7.61723c0.527-.85924,1.10672-1.68863,1.7011-2.50341,0.61242-.83953,1.03879-0.80668,1.68953.01769A15.46337,15.46337,0,0,1,45.406,35.92236a6.9992,6.9992,0,0,1,.37167,1.16391,2.028,2.028,0,0,1-.08541,1.21325c-0.65429.245-.9448-0.28969-1.10768-0.84171-0.29529-1.00073-.51244-2.02889-0.87237-3.005-0.36329-.98517-0.86038-1.921-1.29882-2.87844L41.99328,31.545c-1.01895,1.72881-2.11794,3.4167-3.02957,5.20036a42.42787,42.42787,0,0,0-1.53024,3.964c-0.57159,1.46713-1.3484,1.61815-2.44994.48954a17.46284,17.46284,0,0,1-3.018-4.79051A13.47058,13.47058,0,0,0,30.423,34.32493c-0.61293.65146-1.27246,1.26583-1.8275,1.96336-0.7673.96419-1.40815,2.03032-2.19075,2.98067-0.89651,1.08866-2.14766.84757-2.67993-.64527a17.3349,17.3349,0,0,1-.72617-3.86256c-0.13257-1.17231-.36812-1.57942-1.34112-1.52306a1.41551,1.41551,0,0,0-.97938.43909c-0.5228.7425-.92,1.57226-1.39271,2.35192a4.25348,4.25348,0,0,1-.55473.61426,4.04575,4.04575,0,0,1-.47209-0.86028,0.9715,0.9715,0,0,1,.1978-0.62112c0.40228-.67866.80815-1.357,1.25111-2.00933,0.778-1.14594,1.66778-1.54716,2.61682-1.22526a2.5505,2.5505,0,0,1,1.82176,2.76312c-0.01456,1.44162-.03181,2.91116,1.23771,4.13254,0.7763-1.093,1.50509-2.14733,2.26471-3.179a27.39088,27.39088,0,0,1,1.70694-2.16213,1.3014,1.3014,0,0,1,2.246.00381,11.98264,11.98264,0,0,1,1.71113,2.91346A10.94246,10.94246,0,0,0,36.30061,40.77085Z"/>
    <path stroke="#4299e1" fill="#4299e1" d="M60.97582,36.41681c1.26234-1.883,2.49843-3.71413,3.72092-5.55432,0.98571-1.48378,1.75843-1.61291,3.18778-.61042,1.61733,1.13431,2.3285,2.86432,3.09358,4.55717a7.09868,7.09868,0,0,0,1.88159,3.0118c1.52588-1.54634,3.00507-3.05637,4.50032-4.55036a4.77269,4.77269,0,0,1,.90383-0.68807,1.10008,1.10008,0,0,1,1.60129.20467q1.97017,2.42526,3.961,4.83372a14.614,14.614,0,0,0,1.27041,1.41351,1.506,1.506,0,0,0,2.2876.0874c0.79161-.57749,1.57219-1.17683,2.305-1.826a0.92151,0.92151,0,0,1,1.46682-.02679,0.40653,0.40653,0,0,1-.00254.19614,43.7552,43.7552,0,0,1-4.20164,3.13375c-0.96323.56851-1.999-.03625-2.70976-0.83123-0.96843-1.083-1.8267-2.26371-2.77289-3.36768-0.70092-.81779-1.47908-1.56895-2.19814-2.37188a0.56871,0.56871,0,0,0-.96038-0.03045c-1.31991,1.36546-2.6967,2.68289-3.93017,4.12284-1.189,1.388-1.95367,1.47595-2.91747-.10987-0.94707-1.55832-1.69542-3.23724-2.53659-4.86032a5.30466,5.30466,0,0,0-.442-0.73207c-1.35907-1.82431-2.193-1.8773-3.50616-.04626-1.17727,1.6415-2.17205,3.413-3.32111,5.07621a2.4975,2.4975,0,0,1-1.33831.96374c-0.38937.09273-.914-1.38524-0.67977-1.99458C60.002,35.47343,60.46981,36.22821,60.97582,36.41681Z"/>
  </g>
</svg>