<svg xmlns="http://www.w3.org/2000/svg" data-name="Слой 1" viewBox="0 30 100 40" x="0px" y="0px">
  <g>
    <path stroke="#4299e1" fill="#4299e1" d="M66.83521,68.55475c-5.09779-.04237-9.70856-1.73134-14.30383-3.51689A26.41891,26.41891,0,0,0,40.66746,62.904a15.50005,15.50005,0,0,0-4.08882,1.10939c-2.20615.839-4.30352,1.99192-6.54481,2.70372a63.20376,63.20376,0,0,1-8.90266,2.25282,21.59976,21.59976,0,0,1-12.799-2.18765,13.86116,13.86116,0,0,0-2.28262-.77932c-2.01957-.54391-2.91317-2.31937-4.11994-3.74257a0.88632,0.88632,0,0,1,.03084-0.861A1.15991,1.15991,0,0,1,2.97,61.25988,13.62413,13.62413,0,0,1,4.48552,62.526a11.56758,11.56758,0,0,0,2.2538,1.76762c4.14357,1.91233,8.39843,3.49817,13.086,3.09028a34.76382,34.76382,0,0,0,11.27451-3.09339c3.96688-1.78094,7.9874-3.92144,12.476-3.25214a59.31163,59.31163,0,0,1,11.04033,2.88018c5.577,1.98446,11.16214,3.32249,17.1008,2.24868,0.69183-.1251,1.34917-0.43467,2.03914-0.57878a3.65346,3.65346,0,0,1,1.44792-.03566,0.99132,0.99132,0,0,1,.2543.83979,3.01074,3.01074,0,0,1-1.38027,1.06354C71.67735,67.89633,69.25186,68.20135,66.83521,68.55475Z"/>
    <path stroke="#4299e1" fill="#4299e1" d="M66.34782,51.37907a27.437,27.437,0,0,1-12.54568-2.46934c-4.33941-1.84381-8.59109-3.92961-13.02488-5.50523a13.946,13.946,0,0,0-11.779,1.158c-2.9258,1.62864-5.73683,3.42917-9.07807,4.26683a18.09222,18.09222,0,0,1-8.55487.20516,49.75014,49.75014,0,0,1-7.158-2.11564C3.318,46.56926,2.6988,45.43772,2.07191,44.57833A2.25564,2.25564,0,0,1,2.208,43.4057a2.27193,2.27193,0,0,1,1.08791.29846A8.61814,8.61814,0,0,0,9.4892,46.73179a11.31911,11.31911,0,0,1,1.9135.456,14.64942,14.64942,0,0,0,6.69862.06611c4.031-.64779,7.36179-2.83723,10.9146-4.60657a15.39087,15.39087,0,0,1,10.73747-1.24066c6.098,1.45013,11.46264,4.66,17.28389,6.747A20.32614,20.32614,0,0,0,68.40305,49.224a27.76112,27.76112,0,0,1,3.76177-.57188,2.6942,2.6942,0,0,1,1.13832.67735,3.50079,3.50079,0,0,1-1.18627,1.27581C70.21464,50.97129,68.2742,51.1387,66.34782,51.37907Z"/>
    <path stroke="#4299e1" fill="#4299e1" d="M35.94591,30.8155c5.33607-.25144,10.01491,1.636,14.45565,4.35118a45.948,45.948,0,0,0,12.37187,5.13346,34.22592,34.22592,0,0,0,15.60322.79708,14.28092,14.28092,0,0,0,8.666-4.78049,12.95612,12.95612,0,0,1,2.00491-1.99649,2.866,2.866,0,0,1,1.326-.15387,2.64175,2.64175,0,0,1-.06186,1.38176c-2.24094,1.98893-4.02741,4.4466-6.92692,5.75553a26.017,26.017,0,0,1-9.77918,1.9746c-6.75676.30829-13.09939-1.50361-19.21156-4.09308-3.458-1.465-6.5803-3.74906-10.0711-5.10474-8.19047-3.18079-17.50575-1.52673-23.30552,5.0915a9.117,9.117,0,0,1-.69385.89386,7.59839,7.59839,0,0,1-1.06331.67652,2.57113,2.57113,0,0,1-.282-1.25567,7.00985,7.00985,0,0,1,1.38836-2.22759C24.87377,32.86622,29.58459,31.08185,35.94591,30.8155Z"/>
    <path stroke="#4299e1" fill="#4299e1" d="M34.11579,50.40987c3.88255,0.46916,7.65128.7164,11.32672,1.43854a59.57332,59.57332,0,0,1,7.77481,2.54977c5.57811,1.92761,11.12816,3.91127,17.08814,4.409a27.77047,27.77047,0,0,0,17.0691-3.59091c3.11994-1.88754,5.76572-4.5726,8.55885-6.97568,0.61353-.52782,1.10819-1.23393,1.86727-0.53789,0.82811,0.7594.06826,1.41186-.4848,1.87362a94.61451,94.61451,0,0,1-8.834,7.11185,25.3549,25.3549,0,0,1-7.4274,2.8884,27.46528,27.46528,0,0,1-9.66607,1.1374,54.53,54.53,0,0,1-13.38684-2.782c-4.60976-1.67754-9.27287-3.22139-13.96208-4.66311-3.40543-1.047-6.95807-.80211-10.45986-0.58833-0.83439.051-1.61326,0.73364-2.45881,0.98986a4.84388,4.84388,0,0,1-1.50479-.03c0.12315-.50831.09063-1.31281,0.39641-1.47349C31.31927,51.48043,32.72586,50.98387,34.11579,50.40987Z"/>
    <path stroke="#4299e1" fill="#4299e1" d="M24.57812,54.5519a15.26358,15.26358,0,0,1-2.89705,1.65527,28.48163,28.48163,0,0,1-13.31752.45826c-1.73334-.2864-3.34612-1.41978-4.94742-2.28969A2.83237,2.83237,0,0,1,2.90514,53a3.23815,3.23815,0,0,1,1.37217.1028,15.43287,15.43287,0,0,0,7.11571,2.105,25.182,25.182,0,0,0,11.29065-1.31448,4.8588,4.8588,0,0,1,1.66221-.02117Z"/>
    <path stroke="#4299e1" fill="#4299e1" d="M83.56532,65.37211A31.14477,31.14477,0,0,0,88.384,63.82083c2.55316-1.28684,4.94671-2.88726,7.45116-4.277A4.36348,4.36348,0,0,1,97.502,59.389a2.98257,2.98257,0,0,1-.37714,1.49322,32.80036,32.80036,0,0,1-5.714,3.61962,73.28191,73.28191,0,0,1-8.07219,2.51714c-0.93233.276-2.03744,0.32326-2.08861-.90073-0.05-1.19592,1.10871-1.00812,1.95226-.9913,0.09487,0.00188.18982,0.00077,0.28473,0.001Z"/>
    <path stroke="#4299e1" fill="#4299e1" d="M1.89261,38.17915A2.09114,2.09114,0,0,1,2.553,37.32757a1.58629,1.58629,0,0,1,1.1528.30127A12.38541,12.38541,0,0,0,5.46826,39.202c3.02216,1.41681,6.14078,1.17141,9.25416.26854a4.84917,4.84917,0,0,1,.92234-0.34853,1.26969,1.26969,0,0,1,.95758.24236,1.28048,1.28048,0,0,1-.15474,1.09409c-1.26939,1.48361-3.13016,1.42123-4.83406,1.62643a23.57491,23.57491,0,0,1-3.25431-.15247,7.9332,7.9332,0,0,1-6.03868-2.962A4.40814,4.40814,0,0,1,1.89261,38.17915Z"/>
    <path stroke="#4299e1" fill="#4299e1" d="M80.52895,48.0863a4.24037,4.24037,0,0,1,1.10849-.62772,30.881,30.881,0,0,0,9.762-4.43644c0.54257-.33774.85446-1.03683,1.387-1.4031a4.33551,4.33551,0,0,1,1.44973-.36851,3.00924,3.00924,0,0,1-.09855,1.51965,9.54068,9.54068,0,0,1-2.628,2.35582c-2.90023,1.47037-5.88613,2.77838-8.8783,4.05669A1.43033,1.43033,0,0,1,80.52895,48.0863Z"/>
  </g>
</svg>