<svg xmlns="http://www.w3.org/2000/svg" 
  xmlns:xlink="http://www.w3.org/1999/xlink" version="1.1" x="0px" y="0px" viewBox="0 27 100 46" enable-background="new 0 0 100 100" xml:space="preserve">
  <g fill="#4299e1">
    <path stroke="#4299e1" fill="none" d="M53.67,54.788c-1.024,0.05-2.039,0.296-3.054,0.472c-0.216,0.038-0.418,0.153-0.786,0.294   c0.396,0.25,0.624,0.45,0.892,0.555c1.159,0.454,2.37,0.412,3.592,0.399c1.308-0.015,2.35-0.567,3.273-1.391   c0.725-0.648,1.225-1.451,1.271-2.637c-0.486,0.321-0.845,0.531-1.173,0.781C56.497,54.173,55.194,54.713,53.67,54.788z"/>
    <path stroke="#4299e1" fill="none" d="M62.367,33.86c-1.491-1.592-3.344-2.388-5.383-2.838c-2.573-0.569-5.192-0.534-7.804-0.364   c-1.338,0.088-2.652,0.358-3.866,0.958c-0.681,0.338-1.327,0.737-1.772,1.565c2.135,0.437,4.273,0.35,6.087,1.46   c1.762,1.08,3.423,2.298,4.815,4.04c0.26-0.043,0.443-0.056,0.616-0.105c2.949-0.855,5.64-0.431,8.027,1.583   c0.649,0.549,1.334,1.056,2.006,1.577c0.177,0.137,0.372,0.252,0.685,0.463c0.089-0.391,0.193-0.61,0.18-0.822   c-0.088-1.464-0.373-2.889-1.082-4.188C64.205,35.959,63.332,34.891,62.367,33.86z"/>
    <path stroke="#4299e1" d="M94.888,61.526c-0.318-0.146-0.681-0.31-1.014-0.287c-1.15,0.076-2.308,0.165-3.441,0.37   c-1.258,0.228-2.512,0.387-3.79,0.474c-3.712,0.253-7.249-0.446-10.69-1.78c-1.58-0.612-2.587-1.793-3.203-3.311   c-0.442-1.088-0.194-2.105,0.532-3.101c0.408,0.314,0.745,0.565,1.072,0.828c3.852,3.11,8.241,4.291,13.138,3.668   c2.125-0.269,4.127-1.005,6.177-1.564c0.17-0.046,0.37-0.15,0.454-0.288c0.111-0.186,0.215-0.464,0.154-0.645   c-0.064-0.185-0.312-0.382-0.513-0.427c-0.211-0.049-0.468,0.058-0.696,0.127c-1.336,0.403-2.656,0.872-4.007,1.214   c-3.352,0.845-6.677,0.543-9.847-0.712c-1.443-0.572-2.748-1.552-4.019-2.48c-1.687-1.233-1.665-1.538-0.517-3.252   c1.014-1.514,1.968-3.068,2.956-4.599c0.526-0.817,1.046-1.632,1.937-2.139c0.285-0.163,0.461-0.52,0.773-0.892   c-0.373-0.232-0.663-0.567-0.945-0.562c-1.151,0.018-2.313,0.057-3.371,0.62c-1.34,0.712-2.708,1.374-4.015,2.14   c-0.932,0.549-1.868,1.124-2.338,2.218c-0.182,0.424-0.549,0.806-1.132,0.851c-0.603-0.719-0.662-1.671-1.023-2.497   c-0.352-0.809-0.402-1.581-0.232-2.466c0.493-2.565-0.174-4.941-1.495-7.135c-0.786-1.307-1.773-2.475-2.937-3.467   c-0.55-0.469-1.147-0.917-1.792-1.231c-2.09-1.02-4.256-1.802-6.638-1.734c-0.425,0.012-0.857-0.003-1.275-0.066   c-2.331-0.35-4.596,0.113-6.867,0.529c-2.049,0.376-3.419,1.745-4.703,3.229c-0.261,0.302-0.275,0.656,0.019,1.03   c0.864,0.434,1.851,0.391,2.814,0.46c2.787,0.199,5.191,1.198,7.076,3.315c0.4,0.448,0.874,0.853,0.801,1.508   c-0.544,0.793-1.594,0.982-2.002,1.834c0.229,0.659,0.737,0.833,1.294,0.894c0.423,0.046,0.858-0.014,1.274,0.053   c1.451,0.229,2.979,0.444,3.89,1.729c1.091,1.539,1.905,3.243,2.226,5.141c0.098,0.579-0.016,1.066-0.397,1.525   c-1.16,1.398-2.532,2.465-4.372,2.75c-1.199,0.186-2.412,0.364-3.623,0.392c-1.582,0.038-2.973-0.446-3.869-1.9   c-0.637-1.032-1.317-2.036-1.89-2.918c0.057-0.843,0.137-1.505,0.138-2.167c0.007-2.111-0.459-4.07-1.728-5.826   c-1.365-1.89-2.986-3.513-4.736-5.04c-1.354-1.182-2.827-2.131-4.563-2.573c-1.111-0.281-2.268-0.514-3.405-0.521   c-3.456-0.02-6.912-0.084-10.347,0.583c-1.413,0.274-2.827,0.724-4.309,0.629c-0.222-0.014-0.486,0.104-0.673,0.239   c-0.182,0.13-0.421,0.379-0.4,0.545c0.034,0.259,0.212,0.621,0.426,0.713c0.779,0.334,1.581,0.657,2.408,0.827   c1.008,0.208,1.813,0.689,2.482,1.427c1.223,1.351,2.427,2.72,3.638,4.081c0.779,0.874,1.197,1.96,1.767,2.959   c1.085,1.902,0.28,5.364-1.743,6.665c-1.806,1.162-3.701,2.092-5.712,2.784c-1.724,0.593-3.509,1.004-5.227,1.609   c-1.703,0.599-3.426,0.769-5.204,0.633c-0.146-0.011-0.301,0.093-0.458,0.146c0.068,0.763,0.587,0.975,1.15,0.96   c1.271-0.033,2.552-0.069,3.808-0.249c2.292-0.327,4.498-1.039,6.688-1.763c2.028-0.671,3.944-1.61,5.714-2.809   c0.594-0.404,1.205-0.881,1.6-1.465c1.699-2.516,1.995-5.172,0.492-7.901c-0.349-0.637-0.752-1.258-1.213-1.818   c-1.198-1.456-2.433-2.88-3.668-4.305c-0.806-0.929-1.71-1.726-2.964-2.007c-0.07-0.016-0.11-0.17-0.196-0.315   c0.303-0.091,0.584-0.211,0.878-0.258c4.09-0.655,8.203-0.996,12.338-0.535c2.283,0.254,4.385,0.992,6.011,2.74   c0.246,0.263,0.568,0.454,0.841,0.694c1.806,1.573,3.372,3.319,4.26,5.597c0.442,1.132,0.602,1.877,0.41,3.045   c-0.467-0.609-0.84-1.147-1.264-1.641c-0.87-1.013-1.721-2.048-2.664-2.992c-1.131-1.131-2.675-1.312-4.157-1.657   c-2.388-0.556-4.695-0.428-6.942,0.565c-0.441,0.195-0.884,0.429-0.908,1.059c0.364,0.754,1.159,1.005,1.812,1.42   c3.57,2.268,5.275,5.598,5.546,9.736c0.129,1.962-0.916,3.062-2.75,3.08c-1.391,0.014-2.797,0.123-4.104-0.589   c-0.471-0.257-1.03-0.366-1.559-0.497c-1.139-0.282-2.134-0.072-3.032,0.76c-1.935,1.795-4.182,3.106-6.653,4.021   c-0.966,0.358-1.948,0.712-2.954,0.908c-2.828,0.55-5.562,0.213-8.162-1.073C5.4,59.328,5.22,59.347,5,59.318   c0.673,1.062,1.177,1.48,2.36,1.893c1.695,0.592,3.464,0.689,5.225,0.555c2.708-0.209,5.227-1.099,7.558-2.479   c1.412-0.835,2.809-1.702,4.148-2.645c0.845-0.595,1.669-0.639,2.584-0.333c0.232,0.079,0.465,0.151,0.687,0.251   c1.987,0.895,4.05,0.773,6.086,0.325c1.255-0.276,2.129-1.044,2.31-2.486c0.116-0.916,0.198-1.802,0.022-2.708   c-0.173-0.895-0.278-1.806-0.504-2.686c-0.427-1.671-1.146-3.177-2.436-4.4c-1.091-1.036-2.049-2.211-3.781-3.125   c0.874-0.33,1.302-0.607,1.751-0.643c3.34-0.273,6.413,0.262,8.833,2.892c1.329,1.445,2.434,3.025,3.393,4.726   c1.493,2.652,3.09,5.231,5.128,7.52c0.595,0.668,1.241,1.103,2.094,1.352c1.313,0.382,2.639,0.385,3.979,0.359   c3.652-0.075,6.671-3.46,6.211-7.905c-0.135-1.309-0.589-2.607-1.049-3.853c-0.885-2.398-2.341-4.255-5.045-4.774   c-0.448-0.087-0.882-0.262-1.415-0.423c1.674-0.971,2.626-1.317,4.015-1.421c1.103-0.083,2.222-0.054,3.197,0.519   c2.146,1.263,4.208,2.629,5.495,4.888c0.366,0.642,0.637,1.287,0.817,1.993c0.133,0.526,0.272,1.065,0.511,1.548   c0.641,1.296,1.944,1.531,2.98,0.526c0.477-0.462,0.885-1.008,1.258-1.56c0.49-0.725,1.11-1.273,1.869-1.699   c0.581-0.324,1.109-0.744,1.688-1.07c0.736-0.414,1.485-0.844,2.48-0.583c-0.162,0.308-0.276,0.587-0.442,0.83   c-1.119,1.661-2.25,3.315-3.377,4.971c-1.139,1.672-1.888,3.511-2.341,5.472c-0.222,0.962-0.347,1.929,0.402,2.767   c0.116,0.13,0.201,0.316,0.238,0.489c0.222,1.042,0.938,1.702,1.794,2.191c0.84,0.48,1.722,0.904,2.627,1.239   c0.966,0.358,1.98,0.582,2.975,0.864c3.766,1.067,7.544,1.142,11.348,0.19c1.177-0.294,2.36-0.606,3.598-0.514   c0.173,0.013,0.362-0.035,0.524-0.1c0.092-0.037,0.202-0.167,0.204-0.258C95.004,61.846,94.985,61.571,94.888,61.526z    M57.586,55.118c-0.922,0.824-1.965,1.376-3.273,1.391c-1.222,0.014-2.433,0.056-3.592-0.399c-0.267-0.105-0.496-0.306-0.892-0.555   c0.368-0.141,0.57-0.256,0.786-0.294c1.015-0.176,2.03-0.422,3.054-0.472c1.525-0.075,2.827-0.616,4.014-1.527   c0.329-0.25,0.687-0.46,1.173-0.781C58.811,53.667,58.311,54.469,57.586,55.118z M65.779,42.199   c-0.314-0.211-0.508-0.326-0.685-0.463c-0.672-0.521-1.357-1.028-2.006-1.577c-2.386-2.014-5.078-2.438-8.027-1.583   c-0.173,0.049-0.356,0.062-0.616,0.105c-1.392-1.742-3.053-2.96-4.815-4.04c-1.814-1.109-3.951-1.022-6.087-1.46   c0.444-0.828,1.091-1.227,1.772-1.565c1.214-0.6,2.528-0.87,3.866-0.958c2.612-0.171,5.231-0.205,7.804,0.364   c2.039,0.45,3.892,1.246,5.383,2.838c0.965,1.031,1.837,2.098,2.509,3.328c0.709,1.3,0.994,2.724,1.082,4.188   C65.972,41.589,65.868,41.808,65.779,42.199z"/>
    <path stroke="#4299e1" d="M92.523,66.101c-0.664,0.023-1.33,0.139-1.99,0.108c-4.085-0.19-8.1-0.668-11.867-2.476   c-2.796-1.341-5.578-2.676-8.152-4.425c-1.56-1.061-3.221-1.944-5.141-2.236c-0.62-0.094-1.173-0.131-1.777,0.09   c-1.938,0.71-3.934,1.276-5.831,2.079c-2.176,0.919-4.49,0.961-6.751,1.342c-0.784,0.132-1.57-0.008-2.304-0.381   c-0.972-0.494-1.966-0.944-2.943-1.43c-1.14-0.569-2.253-1.198-3.411-1.726c-1.512-0.69-3.042-0.765-4.553,0.07   c-0.952,0.528-1.928,1.015-2.885,1.535c-1.014,0.552-2.007,1.144-3.028,1.682c-1.705,0.897-3.475,1.308-5.44,0.993   c-2.567-0.412-5.101-0.008-7.564,0.754c-1.026,0.317-1.984,0.832-2.879,1.43c0.043,0.115,0.086,0.23,0.127,0.345   c0.643-0.138,1.294-0.246,1.925-0.419c2.952-0.807,5.915-1.37,8.99-0.736c0.895,0.184,1.806,0.171,2.7-0.14   c1.959-0.681,3.863-1.491,5.581-2.656c0.961-0.654,1.987-1.16,3.017-1.677c1.303-0.652,2.605-0.55,3.857,0.037   c1.042,0.488,2.05,1.072,3.005,1.714c1.075,0.723,2.237,1.219,3.445,1.636c1.117,0.386,2.252,0.486,3.413,0.219   c1.818-0.418,3.657-0.631,5.401-1.474c1.678-0.81,3.585-1.134,5.355-1.773c1.351-0.486,2.635-0.357,3.909,0.135   c0.79,0.306,1.617,0.618,2.287,1.115c1.722,1.277,3.651,2.18,5.491,3.244c4.626,2.679,9.636,3.979,14.943,4.213   c0.843,0.037,1.696-0.109,2.538-0.206c0.229-0.026,0.473-0.141,0.651-0.287c0.106-0.086,0.129-0.314,0.122-0.477   C92.762,66.243,92.606,66.098,92.523,66.101z"/>
    <path stroke="#4299e1" d="M78.632,69.5c-2.561-0.132-5.006-0.79-7.368-1.804c-2.23-0.956-4.45-1.934-6.79-2.61c-1.061-0.307-2.131-0.547-3.227-0.442   c-1.084,0.105-2.16,0.323-3.233,0.526c-3.093,0.587-6.146,1.483-9.352,1.172c-0.119-0.012-0.272-0.017-0.355,0.047   c-0.174,0.133-0.424,0.305-0.437,0.475c-0.015,0.186,0.159,0.479,0.332,0.568c0.314,0.165,0.691,0.305,1.038,0.294   c1.021-0.035,2.05-0.081,3.056-0.242c2.217-0.357,4.432-0.743,6.632-1.199c2.339-0.484,4.593-0.262,6.791,0.614   c1.354,0.539,2.685,1.134,4.034,1.682c1.294,0.525,2.562,1.168,3.905,1.492c1.524,0.367,3.114,0.48,4.682,0.624   c1.81,0.167,3.466-0.455,5.082-1.183c0.074-0.033,0.087-0.204,0.249-0.613c-0.908,0.124-1.617,0.23-2.329,0.316   C80.439,69.326,79.528,69.546,78.632,69.5z"/>
    <path stroke="#4299e1" d="M45.636,64.704c-0.91-0.125-1.747-0.456-2.585-0.817c-1.344-0.578-2.733-0.513-4.104-0.112   c-0.696,0.203-1.363,0.513-2.035,0.796c-1.065,0.446-2.114,0.925-3.184,1.36c-1.067,0.433-2.167,0.788-3.221,1.25   c-2.082,0.912-4.212,1.552-6.513,1.506c-1.093-0.022-2.193-0.053-3.279,0.035c-1.911,0.156-3.753-0.156-5.579-0.653   c-0.644-0.175-1.284-0.378-1.937-0.511c-0.347-0.071-0.733-0.076-1.076,0.001c-0.184,0.042-0.416,0.305-0.443,0.495   c-0.025,0.178,0.156,0.425,0.31,0.578c0.116,0.115,0.328,0.144,0.504,0.188c3.123,0.793,6.251,1.548,9.521,1.189   c0.419-0.045,0.851,0.012,1.275,0.02c2.726,0.056,5.274-0.61,7.753-1.735c2.262-1.026,4.599-1.888,6.903-2.821   c0.169-0.068,0.343-0.123,0.516-0.182c1.246-0.425,2.495-0.488,3.762-0.079c0.463,0.149,0.931,0.297,1.407,0.378   c0.782,0.133,1.577,0.233,2.282-0.486C45.769,64.89,45.713,64.715,45.636,64.704z"/>
  </g>
</svg>