<?xml version="1.0" encoding="UTF-8" standalone="no"?>
<!DOCTYPE svg PUBLIC "-//W3C//DTD SVG 1.1//EN" "http://www.w3.org/Graphics/SVG/1.1/DTD/svg11.dtd">
<svg version="1.1" 
  xmlns="http://www.w3.org/2000/svg" 
  xmlns:xlink="http://www.w3.org/1999/xlink" preserveAspectRatio="xMidYMid meet" viewBox="0 0 100 50">
  <defs>
    <path d="M69.35 15.33C64.1 15.33 64.1 14.58 58.77 14.58C53.52 14.58 53.52 15.33 48.19 15.33C42.94 15.33 42.94 14.58 37.61 14.58C32.35 14.58 32.35 15.33 27.02 15.33C21.77 15.33 21.77 14.58 16.44 14.58C11.11 14.58 11.19 15.33 5.93 15.33" id="e1UAEhRE97"></path>
    <path d="M94.95 33.5C90.27 33.5 90.27 32.75 85.53 32.75C80.85 32.75 80.85 33.5 76.1 33.5C71.43 33.5 71.43 32.75 66.68 32.75C62.01 32.75 62.01 33.5 57.26 33.5C52.58 33.5 52.58 32.75 47.84 32.75C43.09 32.75 43.16 33.5 38.49 33.5" id="b4fBFcTPoo"></path>
    <path d="M93.62 6.15C86.18 6.15 86.18 5.4 78.63 5.4C71.18 5.4 71.18 6.15 63.63 6.15C56.19 6.15 56.19 5.4 48.64 5.4C41.19 5.4 41.19 6.15 33.64 6.15C26.2 6.15 26.2 5.4 18.65 5.4C11.1 5.4 11.2 6.15 3.76 6.15" id="i5vIwdGoOs"></path>
    <path d="M94.08 24.26C86.62 24.26 86.62 23.41 79.05 23.41C71.59 23.41 71.59 24.26 64.02 24.26C56.56 24.26 56.56 23.41 48.99 23.41C41.53 23.41 41.53 24.26 33.97 24.26C26.51 24.26 26.51 23.41 18.94 23.41C11.37 23.41 11.48 24.26 4.02 24.26" id="a1gKGSB3aJ"></path>
    <path d="M92.81 15.33C91.26 15.33 91.26 14.97 89.68 14.97C88.12 14.97 88.12 15.33 86.54 15.33C84.99 15.33 84.99 14.97 83.41 14.97C81.85 14.97 81.85 15.33 80.27 15.33C78.72 15.33 78.72 14.97 77.14 14.97C75.56 14.97 75.58 15.33 74.02 15.33" id="b5AznU9ZV"></path>
    <path d="M33.82 33.6C31.3 33.6 31.3 33.35 28.74 33.35C26.22 33.35 26.22 33.6 23.66 33.6C21.14 33.6 21.14 33.35 18.59 33.35C16.07 33.35 16.07 33.6 13.51 33.6C10.99 33.6 10.99 33.35 8.44 33.35C5.88 33.35 5.92 33.6 3.4 33.6" id="lJ58ers7K"></path>
    <path d="M94.08 44.26C86.62 44.26 86.62 43.41 79.05 43.41C71.59 43.41 71.59 44.26 64.02 44.26C56.56 44.26 56.56 43.41 48.99 43.41C41.53 43.41 41.53 44.26 33.97 44.26C26.51 44.26 26.51 43.41 18.94 43.41C11.37 43.41 11.48 44.26 4.02 44.26" id="d1cWg45AJw"></path>
    <path d="M94.81 54.72C92.7 54.72 92.7 53.97 90.56 53.97C88.46 53.97 88.46 54.72 86.32 54.72C84.21 54.72 84.21 53.97 82.07 53.97C79.96 53.97 79.96 54.72 77.82 54.72C75.71 54.72 75.71 53.97 73.57 53.97C71.43 53.97 71.46 54.72 69.35 54.72" id="j10TsWEqN6"></path>
    <path d="M62.95 54.5C58.27 54.5 58.27 53.75 53.53 53.75C48.85 53.75 48.85 54.5 44.1 54.5C39.43 54.5 39.43 53.75 34.68 53.75C30.01 53.75 30.01 54.5 25.26 54.5C20.58 54.5 20.58 53.75 15.84 53.75C11.09 53.75 11.16 54.5 6.49 54.5" id="a6rC4TzbkZ"></path>
  </defs>
  <g>
    <g>
      <g>
        <use xlink:href="#e1UAEhRE97" opacity="1" fill="#000000" fill-opacity="0"></use>
        <g>
          <use xlink:href="#e1UAEhRE97" opacity="1" fill-opacity="0" stroke="#4299e1" stroke-width="3" stroke-opacity="1"></use>
        </g>
      </g>
      <g>
        <use xlink:href="#b4fBFcTPoo" opacity="1" fill="#000000" fill-opacity="0"></use>
        <g>
          <use xlink:href="#b4fBFcTPoo" opacity="1" fill-opacity="0" stroke="#4299e1" stroke-width="3" stroke-opacity="1"></use>
        </g>
      </g>
      <g>
        <use xlink:href="#i5vIwdGoOs" opacity="1" fill="#000000" fill-opacity="0"></use>
        <g>
          <use xlink:href="#i5vIwdGoOs" opacity="1" fill-opacity="0" stroke="#4299e1" stroke-width="3" stroke-opacity="1"></use>
        </g>
      </g>
      <g>
        <use xlink:href="#a1gKGSB3aJ" opacity="1" fill="#000000" fill-opacity="0"></use>
        <g>
          <use xlink:href="#a1gKGSB3aJ" opacity="1" fill-opacity="0" stroke="#4299e1" stroke-width="3" stroke-opacity="1"></use>
        </g>
      </g>
      <g>
        <use xlink:href="#b5AznU9ZV" opacity="1" fill="#000000" fill-opacity="0"></use>
        <g>
          <use xlink:href="#b5AznU9ZV" opacity="1" fill-opacity="0" stroke="#4299e1" stroke-width="3" stroke-opacity="1"></use>
        </g>
      </g>
      <g>
        <use xlink:href="#lJ58ers7K" opacity="1" fill="#000000" fill-opacity="0"></use>
        <g>
          <use xlink:href="#lJ58ers7K" opacity="1" fill-opacity="0" stroke="#4299e1" stroke-width="3" stroke-opacity="1"></use>
        </g>
      </g>
      <g>
        <use xlink:href="#d1cWg45AJw" opacity="1" fill="#000000" fill-opacity="0"></use>
        <g>
          <use xlink:href="#d1cWg45AJw" opacity="1" fill-opacity="0" stroke="#4299e1" stroke-width="3" stroke-opacity="1"></use>
        </g>
      </g>
      <g>
        <use xlink:href="#j10TsWEqN6" opacity="1" fill="#000000" fill-opacity="0"></use>
        <g>
          <use xlink:href="#j10TsWEqN6" opacity="1" fill-opacity="0" stroke="#4299e1" stroke-width="3" stroke-opacity="1"></use>
        </g>
      </g>
      <g>
        <use xlink:href="#a6rC4TzbkZ" opacity="1" fill="#000000" fill-opacity="0"></use>
        <g>
          <use xlink:href="#a6rC4TzbkZ" opacity="1" fill-opacity="0" stroke="#4299e1" stroke-width="3" stroke-opacity="1"></use>
        </g>
      </g>
    </g>
  </g>
</svg>