<svg width="100" height="40" 
  xmlns="http://www.w3.org/2000/svg" 
  xmlns:svg="http://www.w3.org/2000/svg">
  <style type="text/css">.st0{fill:none;stroke-width:3;stroke-linecap:round;stroke-linejoin:round;stroke-miterlimit:10;}</style>
  <g>
    <path stroke="#4299e1" id="svg_4" transform="rotate(90 47.58454513549805,14.95169353485108)" d="m47.95991,-26.69831c0,6.9 -0.75072,6.9 -0.75072,13.9c0,6.9 0.75072,6.9 0.75072,13.9c0,6.9 -0.75072,6.9 -0.75072,13.9c0,6.9 0.75072,6.9 0.75072,13.9c0,6.9 -0.75072,6.9 -0.75072,13.9s0.75072,6.9 0.75072,13.8" class="st0"/>
    <path stroke="#4299e1" id="svg_7" transform="rotate(90 54.58937072753906,32.826095581054695)" d="m54.96473,-8.82391c0,6.9 -0.75072,6.9 -0.75072,13.9c0,6.9 0.75072,6.9 0.75072,13.9c0,6.9 -0.75072,6.9 -0.75072,13.9c0,6.9 0.75072,6.9 0.75072,13.9c0,6.9 -0.75072,6.9 -0.75072,13.9s0.75072,6.9 0.75072,13.8" class="st0"/>
    <path stroke="#4299e1" id="svg_8" transform="rotate(90 45.41062927246094,5.772946357727055)" d="m45.78599,-35.87706c0,6.9 -0.75072,6.9 -0.75072,13.9c0,6.9 0.75072,6.9 0.75072,13.9c0,6.9 -0.75072,6.9 -0.75072,13.9c0,6.9 0.75072,6.9 0.75072,13.9c0,6.9 -0.75072,6.9 -0.75072,13.9s0.75072,6.9 0.75072,13.8" class="st0"/>
    <path stroke="#4299e1" id="svg_9" transform="rotate(90 50.24155044555665,23.88888549804688)" d="m50.61691,-17.76111c0,6.9 -0.75072,6.9 -0.75072,13.9c0,6.9 0.75072,6.9 0.75072,13.9c0,6.9 -0.75072,6.9 -0.75072,13.9c0,6.9 0.75072,6.9 0.75072,13.9c0,6.9 -0.75072,6.9 -0.75072,13.9s0.75072,6.9 0.75072,13.8" class="st0"/>
  </g>
</svg>