<svg width="100" height="40" 
  xmlns="http://www.w3.org/2000/svg">
  <style type="text/css">.st0{fill:none;stroke-width:3;stroke-linecap:round;stroke-linejoin:round;stroke-miterlimit:10;}</style>

  <g>
    <title>background</title>
    <rect fill="none" id="canvas_background" height="102" width="302" y="-1" x="-1"/>
  </g>
  <g>
    <title>Layer 1</title>
    <g id="svg_1">
      <path stroke="#4299e1" class="st0" d="m38.019751,-16.758145c0,5.253251 -0.75072,5.253251 -0.75072,10.582635c0,5.253251 0.75072,5.253251 0.75072,10.582635c0,5.253251 -0.75072,5.253251 -0.75072,10.582635c0,5.253251 0.75072,5.253251 0.75072,10.582635c0,5.253251 -0.75072,5.253251 -0.75072,10.582635s0.75072,5.253251 0.75072,10.506501" transform="rotate(90 37.64439010620118,14.951690673828129) " id="svg_4"/>
      <path stroke="#4299e1" class="st0" d="m67.091717,4.893536c0,4.676888 -0.75072,4.676888 -0.75072,9.421557c0,4.676888 0.75072,4.676888 0.75072,9.421557c0,4.676888 -0.75072,4.676888 -0.75072,9.421557c0,4.676888 0.75072,4.676888 0.75072,9.421557c0,4.676888 -0.75072,4.676888 -0.75072,9.421557s0.75072,4.676888 0.75072,9.353776" transform="rotate(90 66.7163543701172,33.124313354492195) " id="svg_7"/>
      <path stroke="#4299e1" class="st0" d="m49.066244,-39.157312c0,7.443427 -0.75072,7.443427 -0.75072,14.99473c0,7.443427 0.75072,7.443427 0.75072,14.99473c0,7.443427 -0.75072,7.443427 -0.75072,14.99473c0,7.443427 0.75072,7.443427 0.75072,14.99473c0,7.443427 -0.75072,7.443427 -0.75072,14.99473s0.75072,7.443427 0.75072,14.886855" transform="rotate(90 48.69088363647461,5.772941589355473) " id="svg_8"/>
      <path stroke="#4299e1" class="st0" d="m49.47379,-21.190464c0,7.459895 -0.850121,7.459895 -0.850121,15.027904c0,7.459895 0.850121,7.459895 0.850121,15.027904c0,7.459895 -0.850121,7.459895 -0.850121,15.027904c0,7.459895 0.850121,7.459895 0.850121,15.027904c0,7.459895 -0.850121,7.459895 -0.850121,15.027904s0.850121,7.459895 0.850121,14.919789" transform="rotate(90 49.0487289428711,23.839187622070316) " id="svg_9"/>
      <path stroke="#4299e1" class="st0" d="m83.595387,5.756324c0,1.5563 -0.353112,1.5563 -0.353112,3.135154c0,1.556298 0.353112,1.556298 0.353112,3.135152c0,1.556298 -0.353112,1.556298 -0.353112,3.135152c0,1.5563 0.353112,1.5563 0.353112,3.135154c0,1.556298 -0.353112,1.556298 -0.353112,3.135152s0.353112,1.556298 0.353112,3.112596" transform="rotate(90 83.41883087158203,15.150501251220712) " id="svg_2"/>
      <path stroke="#4299e1" class="st0" d="m18.732824,18.263058c0,2.519646 -0.253711,2.519646 -0.253711,5.07581c0,2.519646 0.253711,2.519646 0.253711,5.075807c0,2.519646 -0.253711,2.519646 -0.253711,5.07581c0,2.519646 0.253711,2.519646 0.253711,5.075807c0,2.519646 -0.253711,2.519646 -0.253711,5.07581s0.253711,2.519646 0.253711,5.039293" transform="rotate(90 18.605970382690426,33.47222518920899) " id="svg_3"/>
    </g>
  </g>
</svg>