<svg width="100" height="50" 
  xmlns="http://www.w3.org/2000/svg" 
  xmlns:svg="http://www.w3.org/2000/svg">
  <g>
    <g id="svg_1">
      <path stroke="#e2e8f0" fill="#e2e8f0" id="svg_2" d="m66.83521,44.427187c-5.09779,-0.04237 -9.70856,-1.73134 -14.30383,-3.51689a26.41891,26.41891 0 0 0 -11.86392,-2.13386a15.50005,15.50005 0 0 0 -4.08882,1.10939c-2.20615,0.839 -4.30352,1.99192 -6.54481,2.70372a63.20376,63.20376 0 0 1 -8.90266,2.25282a21.59976,21.59976 0 0 1 -12.799,-2.18765a13.86116,13.86116 0 0 0 -2.28262,-0.77932c-2.01957,-0.54391 -2.91317,-2.31937 -4.11994,-3.74257a0.88632,0.88632 0 0 1 0.03084,-0.861a1.15991,1.15991 0 0 1 1.00955,-0.13951a13.62413,13.62413 0 0 1 1.51552,1.26612a11.56758,11.56758 0 0 0 2.2538,1.76762c4.14357,1.91233 8.39843,3.49817 13.086,3.09028a34.76382,34.76382 0 0 0 11.27451,-3.09339c3.96688,-1.78094 7.9874,-3.92144 12.476,-3.25214a59.31163,59.31163 0 0 1 11.04033,2.88018c5.577,1.98446 11.16214,3.32249 17.1008,2.24868c0.69183,-0.1251 1.34917,-0.43467 2.03914,-0.57878a3.65346,3.65346 0 0 1 1.44792,-0.03566a0.99132,0.99132 0 0 1 0.2543,0.83979a3.01074,3.01074 0 0 1 -1.38027,1.06354c-2.4007,0.44021 -4.82619,0.74523 -7.24284,1.09863z"/>
      <path stroke="#e2e8f0" fill="#e2e8f0" id="svg_3" d="m66.34782,27.251507a27.437,27.437 0 0 1 -12.54568,-2.46934c-4.33941,-1.84381 -8.59109,-3.92961 -13.02488,-5.50523a13.946,13.946 0 0 0 -11.779,1.158c-2.9258,1.62864 -5.73683,3.42917 -9.07807,4.26683a18.09222,18.09222 0 0 1 -8.55487,0.20516a49.75014,49.75014 0 0 1 -7.158,-2.11564c-0.88932,-0.34959 -1.50852,-1.48113 -2.13541,-2.34052a2.25564,2.25564 0 0 1 0.13609,-1.17263a2.27193,2.27193 0 0 1 1.08791,0.29846a8.61814,8.61814 0 0 0 6.19329,3.02763a11.31911,11.31911 0 0 1 1.9135,0.456a14.64942,14.64942 0 0 0 6.69862,0.06611c4.031,-0.64779 7.36179,-2.83723 10.9146,-4.60657a15.39087,15.39087 0 0 1 10.73747,-1.24066c6.098,1.45013 11.46264,4.66 17.28389,6.747a20.32614,20.32614 0 0 0 11.36577,1.07033a27.76112,27.76112 0 0 1 3.76177,-0.57188a2.6942,2.6942 0 0 1 1.13832,0.67735a3.50079,3.50079 0 0 1 -1.18627,1.27581c-1.90223,0.36601 -3.84267,0.53342 -5.76905,0.77379z"/>
      <path stroke="#e2e8f0" fill="#e2e8f0" id="svg_4" d="m35.94591,6.687937c5.33607,-0.25144 10.01491,1.636 14.45565,4.35118a45.948,45.948 0 0 0 12.37187,5.13346a34.22592,34.22592 0 0 0 15.60322,0.79708a14.28092,14.28092 0 0 0 8.666,-4.78049a12.95612,12.95612 0 0 1 2.00491,-1.99649a2.866,2.866 0 0 1 1.326,-0.15387a2.64175,2.64175 0 0 1 -0.06186,1.38176c-2.24094,1.98893 -4.02741,4.4466 -6.92692,5.75553a26.017,26.017 0 0 1 -9.77918,1.9746c-6.75676,0.30829 -13.09939,-1.50361 -19.21156,-4.09308c-3.458,-1.465 -6.5803,-3.74906 -10.0711,-5.10474c-8.19047,-3.18079 -17.50575,-1.52673 -23.30552,5.0915a9.117,9.117 0 0 1 -0.69385,0.89386a7.59839,7.59839 0 0 1 -1.06331,0.67652a2.57113,2.57113 0 0 1 -0.282,-1.25567a7.00985,7.00985 0 0 1 1.38836,-2.22759c4.50715,-4.39284 9.21797,-6.17721 15.57929,-6.44356z"/>
      <path stroke="#e2e8f0" fill="#e2e8f0" id="svg_5" d="m34.11579,26.282307c3.88255,0.46916 7.65128,0.7164 11.32672,1.43854a59.57332,59.57332 0 0 1 7.77481,2.54977c5.57811,1.92761 11.12816,3.91127 17.08814,4.409a27.77047,27.77047 0 0 0 17.0691,-3.59091c3.11994,-1.88754 5.76572,-4.5726 8.55885,-6.97568c0.61353,-0.52782 1.10819,-1.23393 1.86727,-0.53789c0.82811,0.7594 0.06826,1.41186 -0.4848,1.87362a94.61451,94.61451 0 0 1 -8.834,7.11185a25.3549,25.3549 0 0 1 -7.4274,2.8884a27.46528,27.46528 0 0 1 -9.66607,1.1374a54.53,54.53 0 0 1 -13.38684,-2.782c-4.60976,-1.67754 -9.27287,-3.22139 -13.96208,-4.66311c-3.40543,-1.047 -6.95807,-0.80211 -10.45986,-0.58833c-0.83439,0.051 -1.61326,0.73364 -2.45881,0.98986a4.84388,4.84388 0 0 1 -1.50479,-0.03c0.12315,-0.50831 0.09063,-1.31281 0.39641,-1.47349c1.30683,-0.68647 2.71342,-1.18303 4.10335,-1.75703z"/>
      <path stroke="#e2e8f0" fill="#e2e8f0" id="svg_6" d="m24.57812,30.424337a15.26358,15.26358 0 0 1 -2.89705,1.65527a28.48163,28.48163 0 0 1 -13.31752,0.45826c-1.73334,-0.2864 -3.34612,-1.41978 -4.94742,-2.28969a2.83237,2.83237 0 0 1 -0.51099,-1.37574a3.23815,3.23815 0 0 1 1.37217,0.1028a15.43287,15.43287 0 0 0 7.11571,2.105a25.182,25.182 0 0 0 11.29065,-1.31448a4.8588,4.8588 0 0 1 1.66221,-0.02117l0.23224,0.67975z"/>
      <path stroke="#e2e8f0" fill="#e2e8f0" id="svg_7" d="m83.56532,41.244547a31.14477,31.14477 0 0 0 4.81868,-1.55128c2.55316,-1.28684 4.94671,-2.88726 7.45116,-4.277a4.36348,4.36348 0 0 1 1.66684,-0.15483a2.98257,2.98257 0 0 1 -0.37714,1.49322a32.80036,32.80036 0 0 1 -5.714,3.61962a73.28191,73.28191 0 0 1 -8.07219,2.51714c-0.93233,0.276 -2.03744,0.32326 -2.08861,-0.90073c-0.05,-1.19592 1.10871,-1.00812 1.95226,-0.9913c0.09487,0.00188 0.18982,0.00077 0.28473,0.001l0.07827,0.24416z"/>
      <path stroke="#e2e8f0" fill="#e2e8f0" id="svg_8" d="m1.89261,14.051587a2.09114,2.09114 0 0 1 0.66039,-0.85158a1.58629,1.58629 0 0 1 1.1528,0.30127a12.38541,12.38541 0 0 0 1.76246,1.57316c3.02216,1.41681 6.14078,1.17141 9.25416,0.26854a4.84917,4.84917 0 0 1 0.92234,-0.34853a1.26969,1.26969 0 0 1 0.95758,0.24236a1.28048,1.28048 0 0 1 -0.15474,1.09409c-1.26939,1.48361 -3.13016,1.42123 -4.83406,1.62643a23.57491,23.57491 0 0 1 -3.25431,-0.15247a7.9332,7.9332 0 0 1 -6.03868,-2.962a4.40814,4.40814 0 0 1 -0.42794,-0.79127z"/>
      <path stroke="#e2e8f0" fill="#e2e8f0" id="svg_9" d="m80.52895,23.958737a4.24037,4.24037 0 0 1 1.10849,-0.62772a30.881,30.881 0 0 0 9.762,-4.43644c0.54257,-0.33774 0.85446,-1.03683 1.387,-1.4031a4.33551,4.33551 0 0 1 1.44973,-0.36851a3.00924,3.00924 0 0 1 -0.09855,1.51965a9.54068,9.54068 0 0 1 -2.628,2.35582c-2.90023,1.47037 -5.88613,2.77838 -8.8783,4.05669a1.43033,1.43033 0 0 1 -2.10237,-1.09639z"/>
    </g>
  </g>
</svg>